<?xml version="1.0" encoding="UTF-8"?>
<!DOCTYPE svg PUBLIC "-//W3C//DTD SVG 1.1//EN" "http://www.w3.org/Graphics/SVG/1.1/DTD/svg11.dtd">
<!-- Creator: CorelDRAW X7 -->
<svg xmlns="http://www.w3.org/2000/svg" xml:space="preserve" width="16.9332mm" height="5.5032mm" version="1.1" style="shape-rendering:geometricPrecision; text-rendering:geometricPrecision; image-rendering:optimizeQuality; fill-rule:evenodd; clip-rule:evenodd"
viewBox="0 0 1693 550"
 xmlns:xlink="http://www.w3.org/1999/xlink">
 <defs>
  <style type="text/css">
   <![CDATA[
    .fil0 {fill:white}
   ]]>
  </style>
 </defs>
 <g id="Слой_x0020_1">
  <metadata id="CorelCorpID_0Corel-Layer"/>
  <g id="_1128572917344">
   <g>
    <path class="fil0" d="M719 94c0,13 -1,12 7,11 8,0 20,3 26,7 17,10 20,36 10,50l-3 4c-12,16 -58,16 -58,-32 0,-15 -2,-70 2,-80 5,-15 31,-24 48,-9 10,8 12,22 5,33 -6,10 -20,13 -31,13 -3,1 -6,-1 -6,3zm-39 -21l0 160 21 0 0 -59c8,5 13,17 38,17 49,0 63,-56 38,-80 -2,-2 -3,-4 -5,-5 -1,-1 -2,-1 -3,-2 -2,-1 -2,-1 -4,-2 -6,-4 -11,-2 -15,-5 4,-1 7,-2 10,-4 19,-12 24,-30 14,-49 -16,-33 -64,-26 -81,-9 -9,9 -13,20 -13,38z"/>
    <path class="fil0" d="M1144 305l-20 0 0 25 22 0c0,21 -2,84 3,103 2,8 5,14 10,19 7,8 19,12 29,12l20 -1c4,-1 0,-2 9,-2 0,-33 4,-25 -18,-25 -16,0 -19,-18 -19,-30l0 -73c0,-2 1,-3 3,-3l35 0 0 -25 -34 0c-2,0 -4,-2 -4,-4l0 -35c-6,0 -4,1 -8,2l-21 7c-6,1 -5,2 -5,14 0,3 0,6 0,9 0,4 1,7 -2,7z"/>
    <path class="fil0" d="M1435 334c0,-11 -1,-10 -1,-15 -1,-17 7,-14 -30,-14 0,14 1,24 1,38l0 110c-1,10 -4,8 33,8l0 -81c0,-11 3,-19 6,-27l2 -3c0,0 0,0 0,-1 1,0 1,0 1,0l14 -13c6,-2 9,-2 17,-2 11,0 9,4 9,-27 0,-3 -1,-3 -1,-5 -6,-1 -12,-2 -22,2 -3,1 0,1 -3,2 -4,1 0,-1 -4,1 -2,2 -4,3 -5,4 -5,4 -6,6 -9,11 -2,3 -3,3 -4,6 -3,7 -3,5 -4,6z"/>
   </g>
   <g>
    <path class="fil0" d="M181 472c-8,0 -12,-1 -17,-7 -10,-10 -7,-28 6,-34 21,-11 43,15 26,35 -1,1 -5,3 -6,4 -3,2 -5,2 -9,2zm-96 -55l0 -269c0,-2 1,-2 1,-4l180 0c4,0 9,-2 9,3l0 270c0,2 0,3 -3,3l-184 0c-2,0 -3,-1 -3,-3zm116 -297c-4,1 -3,1 -8,1 -10,0 -28,2 -35,-2 0,-6 1,-3 3,-7 13,0 26,0 38,0 2,2 5,3 2,8zm-132 -8l0 342c0,6 3,14 6,19 1,2 1,1 2,3l4 3c6,5 16,9 24,9l149 0c5,0 12,-1 17,-3l3 -2c8,-4 17,-16 17,-26l0 -350c0,-6 -5,-15 -9,-19 -1,-1 -3,-3 -5,-4l-9 -5c-1,0 -2,-1 -3,-1 -9,-3 -135,-2 -153,-2 -9,0 -16,1 -23,4 -8,4 -15,11 -18,19 -1,2 -1,3 -1,4 -1,4 -1,5 -1,9z"/>
    <path class="fil0" d="M804 403c0,-22 -4,-47 11,-62 4,-4 11,-10 17,-11 9,-2 1,-2 11,-2 18,0 30,12 36,27l2 6c4,16 2,9 2,29 0,7 -2,13 -4,20 -1,4 -2,6 -5,10 -2,2 -3,4 -4,6l-6 5c-8,6 -22,7 -32,6 -6,-1 -12,-6 -16,-10 -1,0 -2,-1 -3,-2 -4,-6 -9,-15 -9,-22zm-4 -75l-3 -23 -22 0c-4,0 -6,-1 -7,2 0,0 1,25 1,30l0 187c10,2 23,1 34,1 2,-10 1,-66 1,-81 5,2 2,5 14,12 15,10 39,10 53,5l16 -8c2,-2 0,0 2,-2l13 -13c3,-5 7,-11 9,-17l2 -4c5,-13 5,-31 5,-45 0,-6 -1,-9 -2,-15 -1,-11 -12,-31 -20,-39 -2,-1 -3,-1 -5,-3 -3,-3 -6,-5 -10,-7 0,0 0,0 -1,0 -6,-4 -19,-7 -27,-7 -8,0 -16,2 -22,4 -5,2 -9,4 -13,7l-4 3c-6,6 -11,12 -14,13z"/>
    <path class="fil0" d="M632 403l0 -38c0,-6 6,-19 11,-24 3,-4 6,-6 10,-8 8,-4 5,-2 11,-4 7,-3 17,1 24,3 5,2 9,7 12,10l5 8c7,15 9,41 3,57 -1,3 0,0 -1,3l-15 21c-10,8 -33,9 -43,1 -1,-1 -2,-2 -3,-3 -5,-3 -8,-8 -11,-14 -1,-3 -3,-7 -3,-12zm-4 -75l-2 -18c-1,-7 5,-5 -29,-5l0 208c0,14 -4,12 32,12 4,0 3,-9 3,-18l0 -63c3,1 2,0 4,3 11,16 34,19 52,16 7,-1 7,-1 13,-3 10,-4 18,-10 25,-18 4,-4 11,-15 13,-20 9,-24 8,-40 5,-65 0,-2 -1,-4 -2,-6 0,-1 0,-2 -1,-3 -1,-4 0,-1 -1,-4 -4,-10 -6,-13 -13,-22l-24 -16c-18,-5 -16,-7 -39,-2l-8 2c-3,1 -4,2 -7,3l-11 9c-1,2 -3,3 -5,5 -2,3 -1,4 -5,5z"/>
    <path class="fil0" d="M484 275l2 9c1,1 1,1 1,3l25 81c0,3 -1,3 -3,3l-52 0c-6,0 1,-13 3,-22l10 -31c1,-2 1,-4 2,-7l8 -32c1,-4 0,-4 4,-4zm-91 186l33 0c2,0 2,0 4,-6l18 -59 70 0c2,4 1,3 3,8 1,2 1,1 1,4l14 45c1,3 2,5 3,8l36 0 -58 -179c0,-2 0,-2 -1,-4l-6 -20c-2,-6 -3,-10 -6,-14l-42 0 -10 33c-1,3 -2,5 -3,7l-17 54c0,1 -1,2 -1,4l-4 13c-1,4 0,0 -1,4l-11 34c-1,2 -2,3 -2,6l-20 62z"/>
    <path class="fil0" d="M984 301c0,14 6,27 16,37 1,1 1,0 1,1 2,1 2,2 4,3 6,6 15,11 23,15l18 8c1,1 1,0 3,1 0,0 1,1 1,1 1,0 2,1 3,1l14 8c5,4 10,9 12,16 5,10 1,26 -7,33 -16,13 -41,12 -60,7 -8,-2 -15,-5 -23,-9l-6 20c0,1 -1,7 -1,8 5,3 19,9 24,10 4,1 3,0 7,1l25 2c11,0 21,-1 32,-5l20 -9c3,-2 3,-2 5,-4l3 -3c5,-5 8,-10 11,-16 10,-16 7,-44 -3,-59 -7,-10 -16,-16 -26,-22 -1,-1 -2,-2 -3,-2l-29 -13c-14,-6 -29,-16 -29,-32 0,-19 15,-30 34,-30l20 1c6,1 11,2 17,5l4 2c3,1 0,0 5,1l3 -13c2,-4 4,-10 4,-15 -5,-2 -17,-6 -21,-7 -20,-2 -42,-4 -61,3l-11 5c-1,1 -3,2 -4,3 -2,2 -3,3 -5,4 -4,5 -9,9 -12,14 -3,8 -8,19 -8,29z"/>
    <path class="fil0" d="M1313 439c-14,0 -17,1 -28,-6 -4,-3 -7,-6 -10,-11 -5,-6 -11,-22 -11,-29l0 -20c0,-4 1,-5 2,-8 1,-5 1,-5 2,-9 0,-1 1,-2 1,-3 2,-3 1,-1 2,-4l3 -4c0,0 0,0 0,-1 4,-7 7,-10 15,-14l3 -2c9,-3 18,-3 26,0l14 10c7,9 9,12 12,23 3,11 4,31 0,41 -1,4 -1,5 -3,9 -4,10 -10,19 -20,24l-8 4zm-83 -63c0,11 -1,15 1,25 1,3 0,5 1,8l7 17c5,10 6,11 15,19 4,4 5,6 10,9l11 5c3,1 0,0 2,1 6,3 25,5 28,4 7,0 19,-1 25,-3 7,-2 18,-8 22,-12 2,-1 2,-1 3,-2 2,-1 1,-1 2,-2 5,-5 10,-11 13,-16 4,-8 7,-13 9,-21 5,-26 3,-25 1,-46 -1,-12 -10,-29 -19,-39l-4 -4c-4,-4 -13,-9 -18,-11 -24,-10 -46,-9 -70,2 -2,1 -3,2 -6,3 -11,8 -20,19 -26,32 -1,2 -2,5 -3,6l-2 8c-1,2 -1,6 -1,8 -1,3 -1,5 -1,9z"/>
    <path class="fil0" d="M1532 364c0,-28 38,-56 63,-29 5,6 15,31 7,31l-67 0c-3,0 -3,0 -3,-2zm-33 6l0 29 5 20c4,12 18,28 29,34l9 5c5,2 10,3 14,4 3,0 3,1 6,1 4,0 7,0 11,0l35 -2c3,-1 1,-1 4,-2 6,-1 10,-2 15,-5 0,-9 -2,-14 -4,-23l-40 8c-4,0 -6,-1 -10,-2 -15,-2 -27,-7 -35,-20l-6 -18 0 -8 101 0c3,0 3,-4 4,-7 1,-14 -1,-24 -4,-38l-4 -9c-1,-2 0,-1 -1,-3 -15,-28 -43,-38 -73,-31 -2,1 -4,1 -6,2 -3,1 -5,1 -7,2 -7,4 -11,6 -16,11 -5,5 -8,7 -13,13 -1,2 -1,4 -3,6 -1,2 -2,4 -3,6 -2,5 -5,14 -6,20 -1,4 -2,3 -2,7z"/>
    <path class="fil0" d="M848 100c14,0 20,9 20,22l-40 0c2,-4 5,-22 20,-22zm-39 30c0,15 0,31 12,43 14,14 28,15 48,11 6,-1 9,-3 14,-6 -1,-2 -2,-10 -2,-14 -2,0 -1,1 -4,-1 -11,5 -33,8 -42,-4 -4,-5 -7,-11 -7,-19l59 0c0,-8 3,-14 -2,-28 -5,-16 -16,-30 -34,-30 -26,0 -42,24 -42,48z"/>
    <path class="fil0" d="M997 168c-15,0 -17,-23 -2,-29 4,-2 15,-4 19,-4 0,12 2,21 -5,28 -2,2 -8,5 -12,5zm-27 -77l3 11c1,4 -1,2 2,3 0,5 10,-5 23,-5 11,0 16,7 16,19 -3,0 -4,0 -9,0 -8,1 -19,4 -25,8 -30,17 -16,69 21,57 4,-1 6,-2 8,-3 4,-2 5,-4 7,-5 1,3 1,3 1,8l17 0c3,-6 1,-5 1,-20 0,-27 4,-62 -14,-76 -11,-8 -31,-7 -44,0 -2,1 -5,3 -7,3z"/>
    <path class="fil0" d="M911 64l0 20c-8,0 -9,-1 -14,2l0 14c5,4 3,3 14,3l0 49c0,11 1,18 5,24 10,16 33,7 36,7l0 -15 -3 -2 -13 0c-3,-3 -5,-5 -5,-11l0 -52c25,0 22,3 22,-15 0,-6 -11,-4 -22,-4 0,-31 3,-28 -17,-23 -2,1 -3,0 -3,3z"/>
   </g>
  </g>
 </g>
</svg>
