<?xml version="1.0" encoding="UTF-8"?>
<!DOCTYPE svg PUBLIC "-//W3C//DTD SVG 1.1//EN" "http://www.w3.org/Graphics/SVG/1.1/DTD/svg11.dtd">
<!-- Creator: CorelDRAW X7 -->
<svg xmlns="http://www.w3.org/2000/svg" xml:space="preserve" width="210mm" height="297mm" version="1.1" style="shape-rendering:geometricPrecision; text-rendering:geometricPrecision; image-rendering:optimizeQuality; fill-rule:evenodd; clip-rule:evenodd"
viewBox="0 0 21000 29700"
 xmlns:xlink="http://www.w3.org/1999/xlink">
 <defs>
  <style type="text/css">
   <![CDATA[
    .fil0 {fill:#CECECE}
   ]]>
  </style>
 </defs>
 <g id="Слой_x0020_1">
  <metadata id="CorelCorpID_0Corel-Layer"/>
  <path class="fil0" d="M1587 14666c-62,-1 -80,-31 -120,-54l-781 -499 0 -55c37,-9 858,-538 947,-595 39,-25 27,-23 74,-13 0,66 -9,91 -11,152 -2,45 -7,34 -10,66 -4,31 0,50 -5,82 -27,150 -70,814 -94,916zm65 22c-26,-17 -11,-13 -43,-22 0,-45 4,-51 8,-78 18,-118 33,-413 55,-554 7,-48 11,-114 13,-160l33 -315c1,-33 2,-60 7,-79 14,-49 12,-27 36,-62 119,0 239,0 358,0 134,0 232,-11 358,-11l543 0c70,0 98,-11 174,-11 -5,55 -43,69 -78,96l-293 239c-181,142 -406,342 -580,473l-442 362c-22,18 -26,16 -48,38l-83 69c-2,2 -5,4 -6,5l-12 10zm-966 -640c-26,-18 -11,-14 -43,-22 16,-73 10,-196 10,-283 0,-54 8,-56 11,-97 5,-58 0,-136 0,-196 0,-82 12,-118 11,-195 -1,-270 22,-524 22,-793 57,-12 52,3 133,85l494 483c44,44 80,80 125,125 42,42 77,77 119,119 99,99 95,72 95,155 -38,10 -84,50 -123,72l-854 547zm2595 -674l89 -84c23,-22 27,-19 49,-38l239 -206c18,-15 26,-28 43,-44l93 -81c24,-20 29,-18 54,-43l239 -206c18,-18 24,-27 45,-42l239 -207c28,-21 28,-20 53,-45l141 -119c286,-259 168,-120 269,-188 1,2 4,2 5,5 1,4 5,5 6,5l1086 576c22,19 13,3 21,33l-326 87c-258,67 -2262,597 -2345,597zm2823 -716l0 11 -13 -9 13 -2zm11671 -131c124,0 781,99 967,109 251,14 717,95 966,109l321 37c56,9 111,13 167,17 46,4 118,18 163,22 -1,67 -105,165 -147,221 -22,29 -33,48 -56,74 -21,24 -33,41 -53,67l-502 649c-38,51 -80,94 -110,150 -58,0 -64,1 -109,11l-241 -225c-78,-75 -217,-184 -304,-272l-1043 -932c-27,-31 -11,-21 -19,-37zm2595 261c-47,23 -862,-81 -958,-95 -59,-9 -109,-7 -168,-16l-973 -113c-59,-10 -109,-9 -167,-17l-329 -41c25,-34 11,-11 84,-47l184 -87c37,-19 61,-26 98,-43 129,-61 248,-117 376,-178l847 -391c46,-23 107,-38 145,11l224 265c11,14 20,19 32,33l65 76c20,21 15,22 33,43l507 600zm-17143 565l-35 30c-10,4 -474,-5 -618,12l-639 1c-77,0 -104,11 -174,11 3,-39 -11,-23 76,-87l415 -334c21,-18 29,-21 49,-38 32,-27 55,-50 88,-75 35,-28 63,-48 97,-77l697 -563c26,-18 20,-17 54,-10l-10 1130zm12551 -1054l11 0 -9 13 -2 -13zm-14039 1065c0,-75 327,-1318 371,-1497 14,-54 48,-162 53,-219 55,-5 45,-28 169,48l862 462 0 55c-40,10 -19,6 -47,29l-319 256c-31,26 -60,51 -90,73l-632 508c-32,26 -56,48 -87,75 -51,43 -243,200 -280,210zm10304 -1227l2298 -894c53,-21 111,-38 156,-62 44,30 26,22 97,22 56,83 155,149 220,214l923 869c45,45 55,30 41,89 -165,0 -305,-18 -468,-21l-347 -22c-61,1 -70,-9 -119,-11 -164,-7 -303,-15 -467,-21 -96,-4 -228,-22 -348,-22l-456 -32c-40,-5 -89,2 -130,-1l-695 -43c-57,0 -66,-8 -108,-11 -40,-3 -90,4 -130,-1 -158,-18 -212,-15 -348,-20 -48,-2 -58,-12 -119,-12l0 -21zm-5939 521l836 -532c37,-22 62,-39 101,-62 40,-23 69,-47 105,-68l641 -402 327 96c38,13 68,23 106,35l1246 416c28,13 16,9 25,17 -90,0 -723,105 -845,121l-2542 379zm5798 -500c-195,0 -355,-11 -543,-11l-1672 -10 1309 -384c79,-24 141,-43 218,-66l221 -61 89 31c17,9 358,409 399,436 -16,25 -21,22 -21,65zm-8665 1195c0,-191 11,-356 11,-554 0,-192 0,-384 0,-576 38,-10 34,-5 44,-43l271 -22c41,-3 35,-10 87,-11l824 -65c62,-7 222,-35 273,-11l-741 649c-23,23 -27,20 -49,38l-650 567c-39,30 -12,26 -70,28zm1499 -1314l-478 43c-84,6 -168,8 -241,20 -79,12 -162,5 -241,19 -43,8 -470,39 -481,33 -35,-19 32,-88 73,-158 32,-55 76,-109 108,-164 33,-57 68,-101 102,-159l205 -316c19,-29 30,-50 49,-80l491 -715 273 889c18,56 167,524 161,544 -13,21 -21,19 -21,44zm13094 -934c67,-18 83,6 229,64l1318 517c36,15 26,-7 38,38 -68,16 -254,117 -330,148 -66,26 -100,47 -165,74l-1083 502c-32,14 -62,43 -81,24 -35,-35 -2,-169 -2,-216l43 -695c0,-55 11,-54 11,-108 1,-48 -2,-69 7,-113 7,-42 2,-74 3,-116 2,-48 12,-58 12,-119zm-16113 2248c-70,0 -50,-2 -138,-90 -135,-135 -281,-293 -423,-413l-180 -179c-268,-268 -319,-233 -77,-354l525 -289c33,-16 47,-29 83,-47l525 -289c141,-71 132,-107 72,136l-165 650c-74,295 -153,581 -222,875zm-977 -967c-26,-17 -11,-13 -43,-21l156 -908c28,-156 48,-298 78,-454l60 -342c26,-129 7,-152 181,23l272 250c93,89 63,71 173,163l164 162c91,72 139,143 208,194 81,58 130,102 130,173 -59,32 -109,59 -170,91l-1035 572c-56,33 -115,66 -174,97zm5831 -1205l1194 413c-43,11 -314,194 -363,223l-366 231c-31,20 -56,33 -87,54l-820 516c-107,64 -60,-12 -24,-122l147 -450c26,-78 45,-148 70,-223l182 -556c21,-67 16,-52 67,-86zm2975 966l-1727 -564c22,-30 314,-209 374,-245 11,-7 18,-10 28,-16 16,-10 18,-15 33,-22 29,-14 25,-1 64,-1 47,0 4,-22 55,12l647 450c40,27 73,46 110,75 36,27 67,44 103,71l217 151c55,37 83,44 96,89zm1900 -542c-201,46 -901,262 -1101,321l-442 133c-20,7 -205,68 -216,56 -10,-10 -30,12 35,-52l831 -874c35,-35 78,-72 108,-108l554 -587c57,-57 192,-225 231,-225l32 0 0 793c0,176 11,313 11,488 -38,10 -40,10 -43,55zm6275 857c-29,8 -47,56 -202,29l-1600 -105c4,-56 54,-68 150,-132 32,-21 48,-36 82,-59 35,-23 58,-38 91,-61 60,-39 109,-72 170,-112 32,-22 53,-36 84,-57l434 -293c145,-110 598,-406 778,-526 98,-65 116,-120 89,231 -3,46 -11,67 -10,130 0,61 -12,69 -12,130 1,81 -12,199 -20,272 -11,91 -2,190 -13,281 -9,74 -21,191 -21,272zm-11671 163c-175,0 49,94 -370,-119 -28,-15 -39,-24 -68,-40l-778 -405c4,-49 4,-35 79,-73 41,-20 68,-34 109,-54 40,-20 56,-34 97,-54l941 -482c511,-253 475,-279 395,-39l-405 1266zm9728 -326c-30,-19 -47,-41 -73,-68l-939 -884c-55,-52 -170,-120 -172,-198 51,-12 72,-25 116,-47 40,-21 75,-32 112,-51 39,-19 192,-95 228,-98l728 1346zm-9164 -1129c33,0 77,-2 109,0 178,14 562,45 716,44 198,-1 623,43 825,43 -17,48 -377,249 -436,291l-30 24 -1184 -402zm6536 -825l1284 747c50,31 61,13 63,78l-286 106c-466,188 -962,366 -1422,553l-712 278c-94,28 -38,-46 -15,-81 28,-41 46,-79 74,-122l941 -1524c29,-26 7,-4 38,-16 21,-8 15,-5 35,-19zm-6601 760c176,-333 382,-796 557,-1147l138 -286c75,-167 94,-75 199,105l120 206c23,37 40,66 61,101 20,33 42,65 61,102l181 308c22,37 42,68 62,101 21,36 35,65 59,104l241 410c19,32 49,71 58,105 -47,32 -140,28 -202,17 -66,-12 -152,-5 -213,-15l-648 -35c-207,-3 -474,-32 -652,-32 -9,-33 -5,-18 -22,-44zm9630 -640c80,-7 1,-29 140,23l1363 526c128,51 124,46 7,124 -33,21 -67,43 -98,65l-1594 1077c-120,80 -125,100 -97,-86l279 -1729zm-9706 684c-11,41 -7,25 -87,65l-1379 705c-36,19 -72,37 -108,55 -77,38 -35,29 -120,21 -9,-39 -19,-75 -31,-109l-402 -1334c11,-44 65,-8 103,4 82,24 146,42 228,65l443 132c84,24 146,42 228,66 79,23 153,47 226,67l444 131c77,23 151,46 227,66 76,21 148,47 228,66zm-4256 456c0,-40 200,-122 239,-142l1498 -749c27,-13 34,-21 61,-36 50,-27 220,-116 265,-127 -67,127 -321,491 -408,635l-152 238c-21,31 -32,48 -53,79l-358 553c-26,40 -19,58 -61,70 -46,13 -63,7 -97,-11 -31,-16 -55,-27 -85,-46 -55,-34 -111,-55 -169,-91 -30,-18 -55,-28 -87,-44 -36,-18 -53,-30 -83,-47l-170 -91c-43,-24 -340,-169 -340,-191zm-1162 -1097c168,0 298,11 467,11l717 0 -39 515c-13,67 -13,185 -15,256l-22 260c-55,13 -38,13 -79,-29l-277 -267c-29,-29 -46,-34 -76,-65l-516 -494c-21,-17 -22,-13 -43,-32 -64,-57 -115,-99 -117,-155zm1194 11c167,0 333,0 500,0 171,0 319,11 499,11 337,0 673,0 1010,0 -39,53 -1593,799 -1752,886 -32,18 -49,31 -83,47l-174 88c-96,50 -65,-62 -55,-153l34 -499c0,-82 21,-227 21,-380zm2107 -22l543 -239c206,-103 591,-253 810,-362 34,-17 60,-23 91,-39 26,38 16,32 76,32l307 615c14,28 22,47 37,73l275 539c-35,29 -239,-45 -287,-61 -382,-128 -939,-261 -1324,-391 -91,-30 -183,-52 -269,-79 -46,-14 -87,-27 -133,-40 -31,-9 -39,-11 -68,-19 -52,-15 -33,6 -58,-29zm-2041 -814c51,-4 19,-19 123,29 24,11 40,15 61,25l662 293c22,10 38,14 62,26 29,13 37,18 67,30 204,80 506,229 725,318l243 115c-174,0 -312,-11 -489,-11l-1259 0c-99,0 -156,-11 -250,-11l55 -814zm13550 2638c-64,0 -64,-5 -138,-155 -96,-195 -272,-491 -380,-695l-286 -529 876 -405c26,-12 39,-20 65,-33 27,-13 45,-18 69,-28 29,-14 40,-25 76,-33 31,47 8,100 -11,217l-252 1539c-6,30 -19,85 -19,122zm-3855 -239l-87 0c-42,-63 -138,-161 -193,-219l-97 -109c-23,-24 -22,-31 -43,-55 -20,-21 -35,-36 -58,-51 9,-38 11,-36 11,-87 46,-12 795,-618 849,-660l423 -337c17,-13 34,-24 50,-37 31,-26 60,-51 90,-73 33,-25 63,-53 98,-76l-59 104c-24,40 -44,68 -67,106l-887 1438c-13,20 -19,36 -30,56zm4213 -1715l1045 -1430c36,-48 282,-373 290,-405l44 0 82 938c6,34 3,49 4,83l14 160c4,28 8,33 8,78l44 554c3,42 9,28 11,76 4,108 13,205 21,315 26,363 122,349 -397,148l-1050 -405c-35,-14 -67,-33 -105,-36 0,-31 -2,-55 -11,-76zm-6591 1715c-140,0 14,85 -228,-76 -50,-33 -93,-66 -147,-102l-443 -306c-30,-20 -40,-30 -70,-50l-340 -235c-28,-21 -7,-14 -42,-23l0 -76c53,-36 101,-82 152,-120l1083 -850c96,-80 122,-120 123,-19 0,153 -23,380 -22,533 0,64 -11,74 -12,130 0,44 4,98 1,141l-18 254c-7,43 -4,92 -4,137 0,64 -9,81 -11,130 -2,42 1,88 1,131 -1,55 -12,66 -12,130 1,106 -11,167 -11,271zm1868 -532l-11 -1281c37,-10 51,-21 54,-65l756 59c39,7 49,5 92,6l468 41c33,5 64,0 96,3 41,3 42,10 98,10 -5,51 -14,41 -80,95 -33,28 -64,48 -97,77 -158,135 -409,318 -587,466 -16,14 -32,25 -49,37 -23,17 -27,21 -48,39l-630 500c-30,26 -27,21 -62,13zm1650 -1259c51,-4 554,-199 599,-216l596 -218c48,0 4,30 86,32 20,83 34,403 52,524 6,34 3,136 20,230l26 299c1,65 11,90 11,163 -50,12 -6,21 -87,-21 -32,-18 -55,-32 -90,-51 -24,-13 -21,-14 -40,-25l-1021 -587c-138,-80 -150,-70 -152,-130zm6254 1390c-53,-29 -129,-52 -186,-75l-577 -226c-130,-53 -250,-99 -381,-151l-282 -110c-34,-14 -67,-32 -105,-36l0 -43 1896 -754c176,-70 112,-54 17,300 -77,288 -187,613 -269,904 -40,141 -25,137 -67,160l-46 31zm-9750 412c0,-211 23,-404 22,-597l22 -358c1,-39 -2,-81 -1,-120l22 -358c-1,-166 22,-323 22,-489 38,-10 33,-5 43,-43l411 13c114,18 273,14 404,19 72,3 54,11 195,11 57,0 78,12 207,11l401 22c4,47 -1,20 22,54 -47,32 -270,276 -334,340l-440 461c-22,25 -23,34 -48,60 -23,23 -38,37 -60,60 -34,33 -81,74 -108,109l-658 700c-20,20 -33,33 -54,54 -26,26 -31,41 -68,51zm8197 -1086c0,-31 39,-142 51,-177l247 -796c11,-33 18,-63 27,-92 36,-115 83,-241 110,-357 80,-6 71,-4 199,51l390 163c232,99 582,232 782,325l203 80 0 33c-47,11 -82,28 -127,46 -45,18 -85,34 -124,50l-1699 679c-17,8 -59,32 -59,-5zm-3398 -1118l22 0c12,52 41,90 65,131 12,20 22,43 32,65 111,217 275,488 391,716 22,44 61,85 66,141 -86,20 -234,107 -323,145 -46,19 -72,30 -112,51 -22,-34 -40,-39 -43,-130 -2,-63 -7,-98 -11,-163 -10,-143 -38,-334 -43,-478l-35 -399c-5,-28 -9,-34 -9,-79zm22 -22l24 -19c71,36 299,97 399,139 130,53 283,87 413,141l615 210c39,14 66,22 106,35 43,15 59,27 104,37l-405 203c-48,24 -86,37 -134,62l-268 122c-48,25 -86,38 -134,62 -43,22 -98,51 -145,62l-575 -1054zm-12236 630l-1184 0c23,-31 569,-386 615,-417 106,-70 201,-134 306,-204 55,-36 274,-194 317,-204l-54 825zm130 -858c0,-71 37,-64 90,-116l147 -135c25,-20 29,-19 53,-44 65,-66 480,-419 502,-454 42,10 44,11 98,11 19,36 35,58 59,94 24,36 39,64 63,100l128 197c44,65 83,130 128,198l510 792c24,36 42,60 64,99 23,41 47,60 58,105 -61,-5 -226,-89 -293,-119l-890 -391c-41,-18 -79,-32 -123,-51l-174 -76c-25,-10 -34,-18 -58,-28l-362 -182zm4983 -65c29,-19 23,-21 56,-14l518 125c92,23 188,44 288,70l884 213c77,15 534,137 589,138l0 55c-36,9 -55,33 -90,62l-86 66c-60,45 -110,89 -170,134 -21,15 -22,16 -43,33 -20,18 -23,17 -43,33 -28,24 -53,46 -83,69l-512 400c-31,22 -55,44 -84,68l-170 133c-53,40 -21,44 -109,44 -8,-34 -33,-69 -52,-100 -22,-35 -39,-66 -60,-103 -22,-37 -41,-68 -61,-101 -21,-35 -37,-67 -59,-104l-702 -1188c-4,-8 -10,-32 -11,-33zm-814 1531l-32 0 -598 -1183c-31,-60 -16,-23 -10,-87l1216 -260c202,-40 205,-72 -11,358l-565 1172zm13268 -2877c0,201 33,525 32,728 0,60 10,70 12,118 1,43 -2,89 -1,132 1,54 11,53 11,107 1,43 -2,89 0,131 2,49 11,58 11,119 0,41 -4,89 2,128 12,78 12,442 30,480 -31,8 -15,-1 -32,22 -28,-13 -59,-23 -93,-37l-1438 -593c0,-77 21,-70 67,-106l326 -293c58,-46 237,-224 326,-293 33,-27 52,-58 89,-85l183 -165c22,-22 21,-20 47,-39 22,-17 32,-28 50,-47l321 -289c32,-33 16,-27 57,-18zm-16536 651c48,-22 259,76 315,98 106,43 210,80 321,124l948 366c104,39 210,87 320,125l548 212c90,35 54,9 78,42 -39,3 -145,58 -185,76l-271 119c-31,16 -58,23 -91,40l-856 382c-15,6 -5,-1 -23,9 -14,8 -10,7 -18,14 -32,-21 -22,-21 -76,-21l-185 -294c-22,-33 -39,-64 -63,-99 -89,-133 -167,-261 -256,-396l-475 -740c-1,-2 -18,-26 -18,-26 -12,-20 -10,-24 -13,-31zm-2313 -249c50,4 61,23 94,48l1066 811c31,23 49,39 80,62 75,56 74,41 74,110 -107,57 -1000,664 -1172,782 -41,28 -34,34 -87,22 0,-315 -22,-609 -22,-923 0,-89 -11,-133 -11,-217 0,-78 4,-164 1,-240l-12 -227c0,-91 -1,-152 -11,-228zm2194 195c1,43 -3,26 10,54 -37,25 -67,52 -100,85l-402 358c-24,25 -28,24 -53,44l-248 230c-51,-29 -52,7 -87,-10 -12,-6 -29,-23 -43,-33l-899 -686c-28,-22 -52,-39 -81,-61 -32,-24 -55,-41 -87,-65 -37,-28 -129,-111 -171,-122 32,-44 57,-15 109,-11l1226 130c29,2 100,12 135,18 38,6 104,13 137,15 89,5 189,22 272,31 96,11 182,23 282,23zm14472 -293l33 0c13,47 440,714 517,840 18,29 22,39 41,68 58,86 19,57 30,110 12,55 52,-34 -30,213l-108 348c-19,64 -265,832 -265,875l-11 0c0,-46 -6,-32 -10,-66l-12 -151c-1,-34 2,-49 -4,-83 -15,-81 -13,-167 -18,-232 -3,-42 -9,-28 -11,-76l-31 -370c-3,-28 1,-58 -2,-85l-43 -457c-8,-229 -46,-475 -53,-695l-14 -161c-4,-27 -9,-33 -9,-78zm717 966c-92,-21 -78,-5 -123,-83l-561 -894c17,-25 21,-22 22,-65 146,0 1314,-175 1563,-195l521 -66c-13,50 -44,54 -79,84l-396 364c-23,18 -25,15 -49,38l-92 82c-35,29 -52,56 -89,84l-627 567c-39,35 -59,38 -90,84zm-17991 -1932c43,49 36,54 72,113 27,44 45,81 72,123 13,21 19,37 30,57l248 425c25,41 47,81 71,125l72 123c-7,32 -11,33 -11,76 26,17 11,13 44,22 0,414 33,888 32,1303 0,87 11,129 11,217 0,76 0,152 0,228l-11 0c0,-63 -57,-270 -73,-350 -25,-121 -52,-235 -81,-354l-476 -2108zm0 0l-12 -21 12 21zm20304 -847l-87 0c-72,82 -11,107 -11,130 0,12 -30,63 -40,80l-91 159c-11,19 -12,16 -25,40l-203 362c-9,16 -11,16 -21,32l-271 478c-26,44 -53,77 -66,130 -84,0 -61,47 -151,55l-969 127c-91,13 -180,21 -261,33l-779 100c-11,-40 -12,-23 -33,-54l-76 0c-40,46 -46,78 -11,130 -46,34 -162,218 -209,279l-381 520c-106,157 -230,301 -335,458 -29,44 -57,75 -87,120l-252 345c-26,36 -71,83 -82,124 -71,0 -60,22 -76,22 -55,0 -1553,-547 -1639,-554 0,-43 -9,-51 -33,-87l-76 0c-31,46 -33,12 -33,87 -81,19 -153,56 -232,82l-236 90c-56,21 -104,37 -160,57l-309 115c-54,22 -103,41 -158,59 -28,9 -53,21 -79,30 -58,22 -33,1 -85,1 -39,0 -21,48 -176,24l-725 -57c-54,1 -62,-5 -99,-9l-525 -40c-42,-14 -12,0 -32,-22 -14,-15 -19,-23 -28,-37l-76 0c-21,32 -22,15 -33,54l-842 -37c-142,-25 -462,-9 -634,-29 -37,-4 -46,-7 -99,-9 -82,-3 -41,-33 -97,-33 -46,0 -1,30 -128,-2 -45,-12 -97,-22 -150,-35l-883 -214c-191,-38 -396,-97 -585,-142 -97,-24 -202,-48 -297,-72 -53,-13 -101,-22 -150,-35 -43,-11 -104,-31 -152,-32 0,-53 -3,-54 -33,-98l-76 0c-24,36 -32,44 -32,87 -42,3 -116,24 -161,35 -50,12 -112,24 -169,37 -93,20 -951,186 -1006,221 -27,-18 -32,-33 -65,-33 -36,0 -22,22 -43,22 -34,0 -1122,-430 -1255,-482 -312,-121 -625,-253 -940,-363 -102,-36 -208,-97 -313,-121 0,-75 -2,-41 -33,-87l-76 0c-21,32 -22,15 -32,54 -140,-3 -319,-38 -457,-53l-866 -90c-73,-11 -181,-26 -263,-30 -80,-5 -183,-23 -261,-32 -96,-11 -181,-23 -281,-23 -47,-18 -8,-54 -98,-54 -11,-47 -42,-90 -65,-130 -25,-42 -46,-76 -73,-123l-144 -247c-24,-41 -43,-82 -70,-125l-213 -374c23,-34 22,-57 22,-98 -46,-40 -78,-46 -130,-10 -57,-39 -131,-114 -196,-131 27,40 51,45 89,74 34,26 62,45 96,67l0 76c36,24 44,33 87,33 0,61 22,121 35,182l125 548c124,485 211,981 335,1468 11,44 159,647 160,707 1,49 -71,-21 -111,-51l-816 -585c11,41 12,31 46,52l575 413c24,18 40,29 63,45 38,27 73,54 113,83 79,57 100,49 104,102l-875 232c-29,13 -17,10 -26,18 94,-2 650,-171 784,-204 44,-11 83,-19 117,-35 9,32 5,17 22,43 -44,30 -111,124 -145,170l-145 170c-17,20 -11,17 -28,37l-553 663c-24,25 -42,42 -52,79 59,-40 123,-147 177,-204 26,-28 33,-43 59,-70l287 -343c15,-18 10,-17 28,-38l293 -347c17,-20 11,-18 28,-38 14,-17 49,-58 62,-68l-242 1387c-11,59 -47,363 -75,402 -21,28 -18,-2 -30,46 -30,-14 -110,-33 -144,-41 -53,-13 -95,-23 -148,-37 -91,-25 -200,-66 -295,-74 23,31 26,21 68,30l499 131c44,21 2,0 28,26 24,22 3,11 35,19 -18,79 -22,475 -22,576 0,82 -11,118 -11,195 2,270 -21,524 -21,793 -55,11 -97,-59 -150,-111l-282 -283c-27,-28 -34,-45 -65,-76 -28,-27 -48,-52 -79,-73 32,120 532,501 532,586l0 22c-92,44 -435,140 -507,177 -22,11 -16,5 -25,29l523 -182c54,-5 7,4 54,7 69,4 3,-22 51,3l428 279c57,38 386,261 432,273 -18,26 -13,12 -22,44 -52,0 -45,-8 -87,-11l-281 -23c-182,-20 -362,-47 -544,-53 -52,-2 -134,-18 -185,-22l-369 -11c128,0 244,19 359,32l727 66c127,9 240,33 369,33 9,19 13,35 22,54 -48,13 -94,56 -132,85l-793 564c-34,26 -108,72 -128,100 -56,-13 -75,2 -102,-7 -14,-4 -29,-18 -46,-30 -32,-22 -61,-43 -91,-60 -65,-38 -124,-79 -185,-120 13,48 109,90 152,119l174 109c0,63 -24,71 -73,111 -32,27 -51,41 -86,67l-126 101c-36,29 -28,-1 -41,47 28,-15 22,-9 46,-30l267 -212c34,-26 22,-9 57,-9 74,1 36,-46 67,-84l191 -134c22,-15 25,-19 44,-33l95 -68c19,-13 27,-17 45,-31l665 -474 98 11c37,-44 30,-51 32,-109 82,-55 209,-176 293,-239l1137 -926c25,-20 25,-23 53,-45 20,-14 31,-31 47,-39 21,-10 31,0 77,0 23,-34 18,-7 22,-54l1329 -343c61,-15 104,-26 165,-41 200,-50 1071,-292 1166,-300 10,40 11,23 32,54l76 0c24,-36 33,-44 33,-86 78,0 1579,-232 1720,-256 499,-87 1009,-145 1509,-229 77,-13 143,-26 224,-26 10,40 11,23 32,54l76 0c24,-35 29,-15 33,-65 195,0 353,11 543,11 557,0 1114,0 1672,0 10,40 11,23 32,54 120,0 72,-33 131,-43 48,-8 512,33 597,33l1074 65c149,-1 430,32 598,32 57,0 60,10 108,12 42,1 86,-5 128,2 98,15 293,12 360,20 42,5 61,10 120,10l728 43c4,50 8,30 32,65l76 0c21,-31 22,-14 33,-54l326 22c37,3 81,-4 118,1 36,4 45,10 99,10l228 10c48,2 50,12 108,12 83,-1 130,9 218,10l223 15c41,8 58,7 102,7l226 13c37,6 57,9 111,9 8,32 4,17 21,43 45,0 35,4 66,-11 14,21 21,28 40,47l1015 907c19,15 31,30 49,48 25,25 30,23 55,43 18,15 31,32 48,49l201 179c38,39 67,55 103,93 35,35 67,63 106,89 -16,34 -11,40 -11,87 50,43 70,36 131,22 33,49 191,206 252,257l342 321c99,83 196,218 296,290 56,41 99,94 149,144 91,91 75,50 91,127 17,87 41,4 155,62 42,22 77,38 115,58 -11,-41 -5,-25 -43,-44 -19,-9 -35,-17 -58,-28 -97,-48 -45,-11 -83,-91 28,-43 66,-88 98,-130 30,-42 82,-85 86,-141l-10 11c-6,8 -8,10 -14,18l-171 231c-112,0 -120,-49 -204,-133 -42,-42 -98,-106 -142,-140 -103,-81 -191,-187 -286,-278l-364 -341c-68,-65 -159,-140 -209,-215 10,-13 7,12 11,-33l860 -84c53,-8 130,-11 182,-13 40,-1 130,-14 165,-20l-165 -2c-42,3 -28,9 -76,11l-272 22c-41,2 -28,9 -75,11 -47,1 -58,3 -90,8l-529 46c-8,-32 1,-16 -22,-33 98,-147 221,-282 326,-423 18,-26 35,-48 57,-74l108 -141c22,-28 38,-45 58,-72 109,-143 231,-282 330,-430 63,0 82,7 87,-54 72,0 149,-22 217,-33 70,-11 153,-32 228,-32l0 -22c-40,1 -415,67 -434,76 -46,-31 -42,-21 -82,-38 -29,-12 -66,-68 -89,-95l-326 -380c-25,-26 -27,-38 -54,-65 -12,-13 -21,-20 -32,-33l-88 -108c-22,-28 -35,-35 -61,-69l-234 -276c14,-29 10,-12 11,-54 108,-26 394,-159 519,-208l701 -287c51,-21 138,-37 169,-81 -55,5 -1178,472 -1331,537 -144,60 -70,-2 20,-339 77,-288 169,-566 254,-853 19,-65 46,-113 48,-181 43,-1 40,-5 65,-22 87,59 453,238 579,301 102,50 265,154 365,177 -35,-48 -593,-313 -702,-373 -47,-26 -199,-105 -242,-115 -1,-51 -2,-54 -44,-66l-41 -838c-19,-124 4,-305 -15,-429 -21,-132 -9,-279 -20,-426 -3,-41 -11,-43 -11,-98 0,-45 -24,-177 45,-155 109,34 727,310 942,395 34,14 45,28 88,31 -25,-34 -203,-99 -251,-118l-521 -217c-89,-34 -176,-88 -270,-110 0,-89 -14,-66 25,-137l118 -208c111,-176 199,-364 307,-541l71 -123c43,-82 168,-265 185,-337 71,0 53,8 97,-22l237 242c-2,-52 -45,-67 -104,-125 -41,-41 -75,-85 -122,-117 0,-74 10,-62 -21,-108 68,-46 132,-149 192,-209 31,-31 53,-36 57,-84 -51,37 -134,150 -187,203 -22,22 -46,55 -62,79z"/>
 </g>
</svg>
