<?xml version="1.0" encoding="UTF-8"?>
<!DOCTYPE svg PUBLIC "-//W3C//DTD SVG 1.1//EN" "http://www.w3.org/Graphics/SVG/1.1/DTD/svg11.dtd">
<!-- Creator: CorelDRAW X7 -->
<svg xmlns="http://www.w3.org/2000/svg" xml:space="preserve" width="200px" height="65px" version="1.1" style="shape-rendering:geometricPrecision; text-rendering:geometricPrecision; image-rendering:optimizeQuality; fill-rule:evenodd; clip-rule:evenodd"
viewBox="0 0 200 65"
 xmlns:xlink="http://www.w3.org/1999/xlink">
 <defs>
  <style type="text/css">
   <![CDATA[
    .fil59 {fill:#1F7BB0}
    .fil66 {fill:#2282B1}
    .fil69 {fill:#2486B3}
    .fil50 {fill:#278AB4}
    .fil53 {fill:#298DB5}
    .fil36 {fill:#2B92B6}
    .fil28 {fill:#2E98B7}
    .fil22 {fill:#319EB9}
    .fil31 {fill:#34A4BB}
    .fil17 {fill:#37AABD}
    .fil29 {fill:#3AAFBE}
    .fil11 {fill:#3CB5BE}
    .fil7 {fill:#40BBC1}
    .fil8 {fill:#44C3C3}
    .fil10 {fill:#47C8C5}
    .fil18 {fill:#49CDC6}
    .fil19 {fill:#4CD2C7}
    .fil16 {fill:#4DD5C8}
    .fil9 {fill:#50DACA}
    .fil15 {fill:#52DECB}
    .fil68 {fill:#54C7AD}
    .fil6 {fill:#54E4CD}
    .fil14 {fill:#58EACD}
    .fil13 {fill:#5BEFD0}
    .fil78 {fill:#5CCBAC}
    .fil12 {fill:#5EF5D0}
    .fil5 {fill:#62FDD3}
    .fil74 {fill:#63CEAC}
    .fil61 {fill:#6CD0AB}
    .fil67 {fill:#72D4AA}
    .fil54 {fill:#7DD9A9}
    .fil62 {fill:#82DBA9}
    .fil1 {fill:#88DEB1}
    .fil65 {fill:#8ADEA8}
    .fil63 {fill:#8EE0A8}
    .fil52 {fill:#94E3A7}
    .fil79 {fill:#9A36C2}
    .fil56 {fill:#9BE6A7}
    .fil77 {fill:#9E37BC}
    .fil44 {fill:#A2E9A6}
    .fil76 {fill:#A337B4}
    .fil70 {fill:#A637AE}
    .fil4 {fill:#A6EBA9}
    .fil72 {fill:#A938AA}
    .fil23 {fill:#ACEDA5}
    .fil55 {fill:#AD37A3}
    .fil64 {fill:#B2399B}
    .fil46 {fill:#B5F1A3}
    .fil58 {fill:#B63A95}
    .fil60 {fill:#B93991}
    .fil49 {fill:#BC3B8B}
    .fil30 {fill:#BCF4A4}
    .fil40 {fill:#C23C83}
    .fil25 {fill:#C4F7A3}
    .fil48 {fill:#C53C7E}
    .fil57 {fill:#C83D78}
    .fil43 {fill:#CB3D73}
    .fil27 {fill:#CCFBA2}
    .fil41 {fill:#D03E6C}
    .fil51 {fill:#D33E67}
    .fil39 {fill:#D53F62}
    .fil32 {fill:#D5FEA1}
    .fil35 {fill:#DA3F5C}
    .fil26 {fill:#DE4056}
    .fil45 {fill:#E3414E}
    .fil71 {fill:#E74147}
    .fil75 {fill:#E84243}
    .fil3 {fill:#F8F8F8}
    .fil34 {fill:#FEB575}
    .fil73 {fill:#FF9676}
    .fil42 {fill:#FF9D76}
    .fil47 {fill:#FFA176}
    .fil38 {fill:#FFA676}
    .fil24 {fill:#FFAE75}
    .fil20 {fill:#FFBA75}
    .fil33 {fill:#FFC275}
    .fil37 {fill:#FFC674}
    .fil21 {fill:#FFCE74}
    .fil2 {fill:white}
    .fil0 {fill:white}
   ]]>
  </style>
 </defs>
 <g id="Слой_x0020_1">
  <metadata id="CorelCorpID_0Corel-Layer"/>
  <g id="_113711320064">
   <path class="fil0" d="M101 13c0,2 0,2 1,2 0,0 2,0 3,0 2,2 2,5 1,6l-1 1c-1,2 -6,2 -6,-4 0,-2 -1,-8 0,-9 1,-2 4,-3 6,-2 1,1 1,3 0,4 -1,2 -2,2 -4,2 0,0 0,0 0,0zm-5 -2l0 19 3 0 0 -7c1,0 1,2 4,2 6,0 8,-7 5,-10 -1,0 -1,0 -1,0 0,0 0,0 0,0 -1,-1 -1,-1 -1,-1 0,0 -1,0 -2,0 1,0 1,-1 2,-1 2,-1 2,-3 1,-6 -2,-3 -7,-3 -9,-1 -1,1 -2,3 -2,5z"/>
   <path class="fil0" d="M116 14c2,0 2,1 2,3l-4 0c0,-1 0,-3 2,-3zm-5 4c0,1 0,3 2,5 1,1 3,1 5,1 1,0 2,0 2,-1 0,0 0,-1 0,-1 0,0 0,0 -1,-1 -1,1 -4,1 -5,0 0,-1 0,-1 0,-2l7 0c0,-1 0,-2 -1,-4 0,-2 -2,-3 -4,-3 -3,0 -5,3 -5,6z"/>
   <path class="fil0" d="M134 22c-2,0 -2,-3 -1,-3 1,-1 2,-1 3,-1 0,2 0,3 -1,3 0,1 -1,1 -1,1zm-4 -9l1 1c0,1 0,1 0,1 0,0 1,-1 3,-1 1,0 2,1 2,2 -1,0 -1,0 -1,0 -1,0 -3,1 -3,1 -4,2 -2,8 2,7 0,0 1,0 1,0 0,-1 1,-1 1,-1 0,0 0,0 0,1l2 0c0,-1 0,-1 0,-2 0,-4 1,-8 -2,-9 -1,-1 -3,-1 -5,0 0,0 0,0 -1,0z"/>
   <path class="fil0" d="M123 10l0 2c-1,0 -1,0 -1,0l0 2c0,0 0,0 1,0l0 6c0,1 1,2 1,3 1,2 4,1 4,1l0 -2 0 0 -2 0c0,-1 0,-1 0,-1l0 -7c3,0 2,1 2,-1 0,-1 -1,-1 -2,-1 0,-4 0,-3 -2,-3 0,1 -1,0 -1,1z"/>
  </g>
  <g id="_113711317344">
   <polygon class="fil1" points="6,27 6,27 6,27 "/>
   <polygon class="fil1" points="6,27 6,27 "/>
  </g>
  <g id="_113711314880">
   <g>
    <path class="fil2" d="M109 60c-2,0 -4,-1 -6,-2 -1,-2 0,-4 2,-5 1,-1 3,-1 4,-1 1,0 2,1 2,1 2,1 3,3 2,5 0,0 -2,1 -2,1 -1,1 -1,1 -2,1zm-2 -22c1,0 2,0 2,0 1,0 1,1 1,1 1,2 2,5 1,7 -1,1 -3,1 -4,0 -2,-1 -3,-4 -3,-5 1,-1 1,-2 2,-3 0,0 1,0 1,0zm-5 5c0,1 0,2 0,2 2,2 4,3 6,3 0,0 0,0 0,1 0,1 0,1 1,2 -1,0 -3,0 -4,0 -1,1 -1,1 -2,1 -1,1 -2,1 -2,2 -1,1 -1,3 0,5 0,0 0,0 0,0 0,0 0,0 0,0l2 1c4,2 9,1 11,-2 1,-2 1,-2 1,-4 0,0 0,-1 0,-2 -1,0 -2,-1 -2,-2 -2,-1 -3,-2 -1,-3l1 -1c0,0 0,0 0,0 0,0 0,0 0,-1 1,-1 2,-3 1,-6 -1,-1 -2,-1 -2,-1 2,0 2,0 4,-1 0,-1 0,0 0,-1 -3,0 -8,0 -10,1 -1,0 -2,1 -3,2 -1,1 -1,2 -1,4z"/>
    <path class="fil2" d="M44 41c0,3 1,5 3,7 0,0 0,0 0,0 2,3 5,4 8,4 2,0 3,0 6,-1 1,0 3,-1 4,-1l0 -5c0,0 1,-1 1,-1 -2,0 -3,0 -5,0 -1,0 -1,0 -3,1l0 0 4 0 0 5c-1,0 0,0 -1,0 -2,1 -6,1 -8,-1 -1,0 -2,-1 -3,-2 -1,-2 -2,-3 -2,-5 -1,-2 -1,-5 1,-8 0,0 0,0 1,-1 1,-1 1,-1 2,-2 3,-1 7,0 9,2 0,0 0,0 0,0l1 1c0,0 0,0 0,1 1,0 1,-1 1,-1 1,-1 2,-1 2,-2 0,0 -3,-1 -3,-2 -5,-1 -11,-1 -14,3 -2,2 -3,3 -3,5l-1 3z"/>
    <path class="fil2" d="M70 42c0,-2 0,-3 2,-4 2,-2 5,-1 6,1 2,3 3,9 0,10 -1,1 -1,2 -2,2 -3,0 -4,-2 -5,-4l0 -2c0,0 -1,0 -1,-1 0,0 0,-1 0,-2zm-3 1c0,3 1,5 3,7 3,3 9,2 12,-2l0 -1c1,-3 1,-5 0,-8 0,0 0,0 -1,0 -3,-5 -11,-3 -13,1 -1,1 -1,2 -1,3z"/>
    <path class="fil2" d="M87 43c0,-2 0,-4 2,-5 2,-2 5,-1 6,1 2,3 3,9 0,11 -2,1 -5,0 -6,-2 -1,-1 -2,-3 -2,-5zm-3 1c0,1 1,3 1,4 1,1 2,2 2,2 3,2 7,2 9,0l1 0c2,-1 2,-2 3,-4 0,-2 0,-4 0,-5l-1 -2c-2,-2 -4,-3 -6,-3 -1,0 -2,0 -3,0l-1 1c-3,1 -5,4 -5,7z"/>
    <path class="fil2" d="M151 50c-1,0 -2,0 -3,-1l-1 -1c0,0 -1,-1 -1,-1l0 -6c0,-1 0,-1 1,-1 0,-1 1,-2 2,-2 1,-1 3,-1 4,0 2,1 3,3 3,5 0,2 0,2 0,4 -1,2 -3,3 -5,3zm-5 -11l0 -3 -2 0 0 21 2 0 0 -8c0,0 0,1 1,1l0 0c1,1 1,1 2,2 2,0 4,0 5,-1 1,0 2,-1 3,-2 0,-1 0,-1 0,-2 2,-3 1,-11 -6,-11 -1,0 -3,1 -4,2 0,0 0,0 -1,0 0,0 0,0 0,1z"/>
    <path class="fil2" d="M170 50c-1,0 -3,0 -4,-1 0,-2 1,-4 2,-4 2,-1 5,-1 7,-1 0,2 0,3 -1,4 0,1 0,0 -1,1 0,0 0,0 0,0l-2 1c0,0 0,0 -1,0zm-5 -10c0,1 0,0 1,0 1,0 0,-1 2,-2 1,-1 4,-1 5,0 0,0 0,0 1,0 1,1 1,3 1,5 -4,0 -8,-1 -10,2 -1,1 -1,2 -1,4 1,3 6,4 9,2 1,-1 1,-1 1,-1 0,0 0,0 0,0l1 -1 0 1c0,0 0,1 0,1l2 0c0,0 0,-1 0,-2l0 -8c0,-1 -1,-2 -1,-2 0,-1 0,-1 -1,-2 -3,-2 -10,-1 -10,3z"/>
    <path class="fil2" d="M115 29l3 0 0 21c0,0 -1,1 -1,1l6 0 0 0c1,-1 0,0 1,-1l-2 0c-1,0 -1,0 -1,-1l0 -19c0,-1 1,-1 1,-2 -1,0 -4,0 -5,0l-1 1c0,0 0,0 0,0 0,0 0,0 0,0l-1 0z"/>
    <path class="fil2" d="M126 43c0,-1 0,-3 1,-5 1,-1 3,-1 5,0 1,1 2,2 1,3l-3 1c0,0 -1,0 -1,0l-3 1zm10 6c0,0 -1,0 -1,1 -2,0 -4,0 -6,-2l0 0c-1,-1 -2,-2 -2,-3 0,0 -1,-1 -1,-2 1,0 1,0 2,0 0,0 1,0 1,0l2 -1c1,0 1,0 1,0l2 -1c0,0 0,0 0,0 1,0 1,0 1,0 0,-1 1,-1 1,-1 0,-2 -2,-4 -5,-4 -3,0 -6,2 -7,5 -1,1 -1,2 -1,2 0,1 1,4 1,5 1,1 1,1 1,1l1 1c0,0 0,0 0,0l3 1c1,1 3,1 4,0 0,0 1,0 1,0 0,0 1,0 1,-1 1,0 0,0 1,0l0 -1c0,0 0,0 0,0z"/>
    <path class="fil2" d="M185 52c0,0 -2,3 -2,4 0,0 -1,0 -1,0 -1,0 -1,0 -2,0 0,1 0,1 0,1 4,1 5,-1 6,-3l1 -4c1,-2 2,-4 3,-6l3 -8 -2 0 -5 12c0,0 0,1 0,1l0 0c0,0 -1,-1 -1,-1 -1,-3 -3,-8 -4,-10 0,0 0,0 0,-1 -1,0 -1,0 -1,-1l-2 0 4 9c0,0 0,1 0,1l2 4c0,0 1,1 1,2z"/>
    <polygon class="fil2" points="136,49 137,49 136,49 "/>
   </g>
   <polygon class="fil3" points="160,51 162,51 162,31 160,31 "/>
  </g>
  <polygon class="fil4" points="7,27 6,27 "/>
  <g id="_113711322208">
   <path class="fil5" d="M7 39c0,2 0,3 0,4 0,1 -1,2 0,2 0,1 0,1 1,1l1 -1c0,0 0,0 1,-1 0,0 1,-1 1,-1 0,0 1,-1 1,-1 0,0 0,-1 1,-1 0,0 1,-1 1,-1 0,0 0,-1 1,-1 0,0 0,0 0,0 0,0 0,-1 1,-1 0,0 0,0 0,0 0,-1 1,-1 1,-1 0,-1 -2,0 -2,0 -1,0 -1,0 -2,1 0,0 -1,0 -1,0l-1 0c-1,0 -1,0 -1,1 0,0 -1,0 -1,0l-2 0z"/>
   <path class="fil6" d="M7 35l0 1c0,0 2,-1 3,-1l8 -2c1,0 3,-1 4,-1 0,0 0,0 0,0 0,0 0,0 0,0 0,-1 1,-1 1,-1 0,0 0,-1 0,-1l-4 1c0,1 -1,1 -1,1 0,0 -1,0 -1,0l-2 1c-1,0 -3,0 -4,1 -1,0 -1,0 -1,0 -1,0 -1,0 -1,0l-2 1z"/>
   <path class="fil7" d="M7 27l0 1c0,0 1,0 1,0l11 -3c0,0 0,0 0,-1 0,0 0,0 0,0 0,0 0,0 0,0 0,0 0,0 0,0l-1 0c0,0 0,0 -1,0 0,0 0,0 0,0 -1,1 -1,0 -2,1 -1,0 -3,0 -3,0l0 0c-1,1 -2,1 -3,1 0,0 0,0 0,0 0,0 0,0 0,0l-2 1z"/>
   <path class="fil8" d="M7 28l0 2c0,-1 1,-1 1,-1l3 -1c1,0 0,0 2,0 0,0 0,0 1,0l3 -1c1,0 1,0 2,-1l1 0c0,0 0,0 0,0 0,0 0,0 0,-1 0,0 0,0 0,0 0,0 0,0 -1,0l-11 3c0,0 -1,0 -1,0z"/>
   <path class="fil9" d="M7 33l0 1c0,0 0,0 1,0l3 -1c0,-1 1,-1 2,-1 1,0 2,0 2,0 1,0 1,-1 1,-1 1,0 1,0 1,0l4 -1c0,0 0,0 1,0 0,0 1,0 1,-1 1,0 1,0 1,0 0,0 0,0 -1,0 0,0 0,0 0,0 -1,0 -1,0 -2,0 -1,0 -1,0 -2,1 0,0 -1,0 -1,0 0,0 -1,0 -1,0 0,0 -1,0 -1,0l-6 2c-1,0 -2,1 -3,1z"/>
   <path class="fil10" d="M7 30l0 1c0,0 0,0 0,-1l3 0c1,0 1,-1 2,-1 1,0 1,0 2,0l7 -2c0,0 0,0 0,-1 0,0 0,0 -1,0l-1 0c-1,1 -1,1 -2,1l-3 1c-1,0 -1,0 -1,0 -2,0 -1,0 -2,0l-3 1c0,0 -1,0 -1,1z"/>
   <path class="fil11" d="M7 25l0 2 2 -1c0,0 0,0 0,0 0,0 0,0 0,0 1,0 2,0 3,-1l0 0c0,0 2,0 3,0 1,-1 1,0 2,-1 0,0 0,0 0,0 1,0 1,0 1,0 0,-1 0,-1 0,-1 0,0 -1,0 -1,-1 0,1 0,1 -1,1 -2,1 -6,2 -8,2 0,0 -1,0 -1,0z"/>
   <path class="fil12" d="M7 38l0 1 2 0c0,0 1,0 1,0 0,-1 0,-1 1,-1l1 0c0,0 1,0 1,0 1,-1 1,-1 2,-1 0,0 2,-1 2,0l0 0c0,-1 0,-1 1,-1 0,0 0,0 0,0 0,0 0,0 0,0 0,-1 1,-1 1,-1 0,0 -1,0 -2,0 0,0 -1,0 -1,1 -1,0 -1,0 -2,0 0,0 -1,0 -2,1 -1,0 0,0 -2,0 0,0 0,0 0,0 -1,0 -1,0 -2,1 0,0 -1,0 -1,0z"/>
   <path class="fil13" d="M7 37l0 1c0,0 1,0 1,0 1,-1 1,-1 2,-1 0,0 0,0 0,0 2,0 1,0 2,0 1,-1 2,-1 2,-1 1,0 1,0 2,0 0,-1 1,-1 1,-1 1,0 2,0 2,0 0,0 0,0 0,0 0,-1 1,-1 1,-1 0,0 0,0 0,-1 0,0 -1,1 -1,1 -2,0 -6,1 -7,1 0,0 0,0 0,1l-4 0c0,1 -1,1 -1,1z"/>
   <path class="fil14" d="M7 36l0 1c0,0 1,0 1,-1l4 0c0,-1 0,-1 0,-1 1,0 5,-1 7,-1 0,0 1,-1 1,-1 0,0 0,0 0,0 0,0 0,0 0,0 0,0 1,0 1,0 0,0 0,-1 1,-1 0,0 0,0 0,0 -1,0 -3,1 -4,1l-8 2c-1,0 -3,1 -3,1z"/>
   <path class="fil15" d="M7 34l0 1 2 -1c0,0 0,0 1,0 0,0 0,0 1,0 1,-1 3,-1 4,-1l2 -1c0,0 1,0 1,0 0,0 1,0 1,-1l4 -1c1,0 1,0 1,0l0 0 0 0c0,-1 0,-1 0,-1 0,0 0,0 -1,0 0,1 -1,1 -1,1 -1,0 -1,0 -1,0l-4 1c0,0 0,0 -1,0 0,0 0,1 -1,1 0,0 -1,0 -2,0 -1,0 -2,0 -2,1l-3 1c-1,0 -1,0 -1,0z"/>
   <path class="fil16" d="M7 32l0 1c1,0 2,-1 3,-1l6 -2c0,0 1,0 1,0 0,0 1,0 1,0 0,0 1,0 1,0 1,-1 1,-1 2,-1 1,0 1,0 2,0 0,-1 0,-1 0,-1 0,0 0,0 -1,0 0,0 -5,1 -6,2l-4 1c-1,0 0,0 -1,0l-4 1z"/>
   <path class="fil17" d="M7 23l0 2 6 -2c1,0 3,-1 4,-1 0,0 0,0 -1,0 0,0 0,0 0,0 0,-1 0,-1 0,-1 0,0 0,0 0,0 0,0 0,0 0,0 -1,0 -1,0 -1,0 -2,1 -4,1 -6,2 -1,0 -1,0 -2,0z"/>
   <path class="fil18" d="M7 31l0 0 8 -2c1,0 1,0 1,0l5 -1c1,-1 1,0 1,-1 0,0 0,0 0,0 -1,0 0,0 -1,0l-7 2c-1,0 -1,0 -2,0 -1,0 -1,1 -2,1l-3 0c0,1 0,1 0,1z"/>
   <path class="fil19" d="M7 31l0 1 4 -1c1,0 0,0 1,0l4 -1c1,-1 6,-2 6,-2l0 0c0,0 0,0 0,0 0,-1 0,-1 0,-1 0,1 0,0 -1,1l-5 1c0,0 0,0 -1,0l-8 2z"/>
   <path class="fil20" d="M27 32c0,0 0,0 0,0 0,1 0,0 0,1 0,0 0,0 1,0l3 -2c0,0 0,0 1,0 0,-1 1,-1 2,-2 0,0 1,-1 2,-1 0,0 -1,0 -1,-1 -1,1 -1,0 -1,1l-3 1c0,1 0,0 0,1 -1,0 -1,0 -1,0 0,0 0,0 0,0 0,0 0,0 0,0 0,0 0,0 -1,0l-2 2c0,0 0,0 0,0z"/>
   <path class="fil21" d="M29 34l0 0c0,1 0,1 0,1l7 -4c1,0 1,-1 1,-1 0,-1 0,-1 0,-1l-7 4c0,0 0,0 0,0l-1 1c0,0 0,0 0,0z"/>
   <path class="fil22" d="M7 21l0 1c1,0 1,0 2,0 0,0 1,0 2,-1 0,0 0,0 1,0 0,0 0,0 0,0 1,0 0,0 1,0 0,0 0,0 0,0 1,0 0,0 1,0 0,-1 1,-1 1,-1 0,0 0,0 0,0l-1 -1 0 0 -7 2z"/>
   <path class="fil23" d="M17 22l0 0c0,1 1,1 1,1 0,0 0,0 0,1l1 0c0,0 2,-1 3,-1 0,0 1,0 2,0 0,0 0,-1 1,-1 0,0 0,0 -1,0 0,-1 0,-1 -1,-1 0,0 -1,0 -1,0 -1,1 -1,1 -2,1 -1,0 -2,0 -3,0z"/>
   <path class="fil24" d="M25 31l0 0c1,0 1,0 1,1 0,-1 2,-1 2,-2l6 -3c0,0 0,0 0,0 0,0 -1,-1 -1,-1 -1,1 -1,1 -1,1 -1,0 -1,0 -2,1 -1,0 -1,0 -1,1 -1,0 0,0 -1,0 -1,0 -1,1 -1,1 0,0 0,0 0,0l0 0c-1,0 -1,0 -2,1z"/>
   <path class="fil25" d="M20 25c0,0 0,0 0,0 0,1 0,1 0,1 0,0 0,0 0,0 1,0 1,0 1,0 0,0 0,0 0,0 2,0 1,0 3,0 1,0 1,-1 2,-1 1,0 2,-1 3,-1l0 0 -1 0c0,0 0,0 0,-1 0,1 0,0 -1,1 0,0 0,0 0,0 -1,0 -2,0 -4,1l-3 0c0,0 0,0 0,0z"/>
   <path class="fil26" d="M24 30c0,0 0,3 0,4 0,1 1,2 1,3l1 0c0,-1 0,-1 0,-2 0,-1 0,-1 0,-1 0,-1 -1,-2 -1,-3l0 0c0,0 0,0 0,0 0,-1 0,-1 0,-1 0,0 0,0 0,0 -1,0 -1,0 -1,0l0 0 0 0z"/>
   <path class="fil27" d="M21 26c0,1 0,1 0,1 1,0 0,0 1,0 0,0 0,0 0,0 0,0 0,0 0,1 0,-1 0,-1 0,-1 1,0 1,0 2,0 1,0 0,0 2,-1 0,0 0,0 1,0 0,0 0,0 0,0 0,0 0,0 0,0 1,0 1,0 1,-1 0,0 1,0 1,-1 -1,0 -2,1 -3,1 -1,0 -1,1 -2,1 -2,0 -1,0 -3,0 0,0 0,0 0,0z"/>
   <path class="fil28" d="M7 20l0 1 7 -2 0 0c-1,0 -1,-1 -1,-1 0,0 -3,1 -3,1l-3 1z"/>
   <path class="fil29" d="M7 25l0 0c0,0 1,0 1,0 2,0 6,-1 8,-2 1,0 1,0 1,-1l0 0 0 0c-1,0 -3,1 -4,1l-6 2z"/>
   <path class="fil30" d="M19 24c0,1 0,1 0,1 1,0 1,0 1,0 0,0 0,0 0,0l3 0c2,-1 3,-1 4,-1 0,0 0,0 0,0 1,-1 1,0 1,-1 -1,0 -1,0 -2,0 0,0 -1,0 -2,0 -1,0 0,0 -1,1l-4 0z"/>
   <path class="fil31" d="M7 22l0 1c1,0 1,0 2,0 2,-1 4,-1 6,-2 0,0 0,0 1,0l-1 -1 0 0c0,0 -1,0 -1,1 -1,0 0,0 -1,0 0,0 0,0 0,0 -1,0 0,0 -1,0 0,0 0,0 0,0 -1,0 -1,0 -1,0 -1,1 -2,1 -2,1 -1,0 -1,0 -2,0z"/>
   <path class="fil32" d="M22 28c0,0 0,0 0,0l0 0c1,0 1,0 1,0 0,0 0,0 0,1 0,0 0,0 0,0 1,0 1,0 1,0 0,0 0,0 0,1 1,-1 1,-1 2,-2 0,0 1,-1 1,-1 0,0 0,0 0,-1 0,0 0,1 0,0 0,0 0,0 0,0 0,0 0,0 0,0 -1,0 -1,0 -1,0 -2,1 -1,1 -2,1 -1,0 -1,0 -2,0 0,0 0,0 0,1z"/>
   <path class="fil33" d="M28 33c0,0 0,0 0,0 0,0 0,0 0,1l0 -1 4 -2c1,0 2,-1 2,-1 1,0 2,-1 2,-2 0,0 0,0 0,0 -1,0 -2,1 -2,1 -1,1 -2,1 -2,2 -1,0 -1,0 -1,0l-3 2z"/>
   <path class="fil34" d="M26 32c0,0 0,0 1,0 0,0 0,0 0,0l2 -2c1,0 1,0 1,0 0,0 0,0 0,0 0,0 0,0 0,0 0,0 0,0 1,0 0,-1 0,0 0,-1l3 -1c0,-1 0,0 1,-1 -1,0 -1,0 -1,0 0,0 0,0 0,0l-6 3c0,1 -2,1 -2,2z"/>
   <path class="fil35" d="M23 30c0,0 0,1 0,1 0,0 0,3 0,3 0,1 1,1 1,2 0,1 0,1 0,2 0,0 0,0 1,-1 0,-1 -1,-2 -1,-3 0,-1 0,-4 0,-4 0,0 0,0 -1,0z"/>
   <path class="fil36" d="M7 19l0 1 3 -1c0,0 3,-1 3,-1 0,0 0,0 0,0 -1,0 -1,-1 -1,-1 0,0 -2,1 -3,1 0,0 -2,1 -2,1z"/>
   <path class="fil37" d="M28 34c0,0 0,0 1,0 0,0 0,0 0,0l1 -1c0,0 0,0 0,0l7 -4c0,0 0,0 -1,-1 0,1 -1,2 -2,2 0,0 -1,1 -2,1l-4 2 0 1z"/>
   <path class="fil38" d="M25 30c0,0 0,0 0,1 0,0 0,0 0,0 1,-1 1,-1 2,-1l0 0c0,0 0,0 0,0 0,0 0,-1 1,-1 1,0 0,0 1,0 0,-1 0,-1 1,-1 1,-1 1,-1 2,-1 0,0 0,0 1,-1l-1 0 -2 1c-2,1 -1,1 -1,1 -1,0 -1,0 -2,1l-2 1c0,0 0,0 0,0l0 0c0,0 0,0 0,0z"/>
   <path class="fil39" d="M22 32c0,0 1,4 1,5 0,0 0,1 0,1 0,0 1,0 1,0 0,-1 0,-1 0,-2 0,-1 -1,-1 -1,-2 0,0 0,-3 0,-3 0,0 -1,0 -1,1z"/>
   <path class="fil40" d="M17 37c0,1 1,3 1,4 0,0 1,0 1,0 0,-1 0,-2 0,-3 0,-1 -1,-2 -1,-2 0,0 0,0 0,0 0,0 0,0 0,0 -1,0 -1,0 -1,1z"/>
   <path class="fil41" d="M21 33l0 5c0,1 0,0 0,1l1 0c0,-1 0,-1 0,-2 0,0 0,-1 0,-2 0,0 -1,-2 0,-3 -1,0 -1,1 -1,1z"/>
   <path class="fil42" d="M27 27c0,0 -1,1 -1,1 -1,1 -1,1 -2,2l0 0 0 0c1,0 1,-1 1,-1l1 0c0,0 0,0 0,0 1,-1 1,-1 2,-2 0,0 0,0 1,0 0,0 0,0 1,-1l1 -1c0,0 0,0 -1,0 0,0 -1,1 -1,1l-1 0c-1,1 -1,0 -1,1l0 0z"/>
   <path class="fil43" d="M20 33c0,1 0,1 0,1 0,0 0,2 0,3 0,1 0,2 0,3l1 -1c0,-1 0,0 0,-1l0 -5c0,0 -1,0 -1,0 0,0 0,0 0,0 0,0 0,0 0,0z"/>
   <path class="fil44" d="M16 22c1,0 1,0 1,0l0 0c1,0 2,0 3,0 1,0 1,0 2,-1 0,0 1,0 1,0l0 0c0,0 0,0 0,0 0,0 0,0 0,0 -1,0 -1,-1 -1,-1 0,0 0,0 0,0 0,0 -1,1 -1,1 -1,0 -1,0 -2,0l-3 1z"/>
   <path class="fil45" d="M26 37l1 -1c0,0 0,0 0,0 0,-1 0,-1 0,-2 0,0 0,0 0,-1 0,0 0,0 0,0 0,-1 0,-1 0,-1 0,0 0,0 0,0 -1,0 -1,0 -1,0 0,-1 0,-1 -1,-1 0,1 1,2 1,3 0,0 0,0 0,1 0,1 0,1 0,2z"/>
   <path class="fil46" d="M19 24c0,0 0,0 0,0 0,0 0,0 0,0 0,0 0,0 0,0l4 0c1,-1 0,-1 1,-1 1,0 2,0 2,0 0,0 0,0 0,0 0,0 0,0 0,0 0,-1 0,-1 -1,-1 -1,0 -1,1 -1,1 -1,0 -2,0 -2,0 -1,0 -3,1 -3,1z"/>
   <path class="fil47" d="M24 30c0,0 0,0 1,0 0,0 0,0 0,0 0,0 0,0 0,0l0 0c0,0 0,0 0,0l2 -1c1,-1 1,-1 2,-1 0,0 -1,0 1,-1l2 -1 -1 -1 -1 1c-1,1 -1,1 -1,1 -1,0 -1,0 -1,0 -1,1 -1,1 -2,2 0,0 0,0 0,0l-1 0c0,0 0,1 -1,1z"/>
   <path class="fil48" d="M19 35c0,0 -1,0 -1,1 0,0 1,1 1,2 0,1 0,2 0,3 0,0 0,-1 0,-1 1,0 1,0 1,0 0,0 0,0 0,0 0,-1 0,-2 0,-3 -1,-1 -1,-1 -1,-2 0,0 0,0 0,0z"/>
   <path class="fil49" d="M16 38c0,0 0,0 0,1 0,0 1,1 1,1 0,1 0,1 0,2 0,0 0,0 1,-1 0,-1 -1,-3 -1,-4l0 0c0,0 -1,0 -1,1z"/>
   <path class="fil50" d="M7 17l0 1 3 -1c0,0 1,0 1,0l0 -1c0,0 0,0 -1,0l0 0c0,0 -1,0 -2,0 0,1 -1,1 -1,1z"/>
   <path class="fil51" d="M22 32c0,0 0,0 0,0 -1,1 0,3 0,3 0,1 0,2 0,2 0,1 0,1 0,2l1 -1c0,0 0,-1 0,-1 0,-1 -1,-5 -1,-5 0,0 0,0 0,0 0,0 0,0 0,0z"/>
   <path class="fil52" d="M15 20l1 1c0,0 0,0 0,0 0,0 1,0 1,0 1,0 1,0 1,-1 1,0 3,0 3,0 0,0 0,-1 -1,-1 0,0 -1,0 -1,1 -1,0 -1,0 -1,0 -1,0 -3,0 -3,0z"/>
   <path class="fil53" d="M7 18l0 1c0,0 2,-1 2,-1 1,0 3,-1 3,-1l0 0c0,0 0,0 0,0l-1 0c0,0 0,0 0,0 0,0 -1,0 -1,0l-3 1z"/>
   <path class="fil54" d="M13 18c0,0 0,0 0,0 0,0 0,1 1,1 0,-1 1,-1 1,-1 1,0 2,0 3,0 -1,0 -2,-1 -2,-1 0,0 -1,0 -2,0 0,0 0,0 -1,1 0,0 0,0 0,0z"/>
   <path class="fil55" d="M13 41c0,1 0,2 0,3 0,0 1,-1 1,-1 0,0 0,-1 0,-1 0,-1 0,-1 0,-2 0,0 -1,1 -1,1z"/>
   <path class="fil56" d="M16 21c0,0 0,0 0,0 0,0 0,0 0,1 0,0 0,0 0,0l3 -1c1,0 1,0 2,0 0,0 1,-1 1,-1 0,0 -1,0 -1,0 0,0 -2,0 -3,0 0,1 0,1 -1,1 0,0 -1,0 -1,0z"/>
   <path class="fil57" d="M19 35c0,1 0,1 1,2 0,1 0,2 0,3 0,0 0,0 0,0 0,0 0,0 0,0 0,-1 0,-2 0,-3 0,-1 0,-3 0,-3 0,0 -1,0 -1,1z"/>
   <path class="fil58" d="M15 39c0,1 0,3 0,4 0,0 1,-1 1,-1 0,0 0,-3 0,-4 -1,0 -1,1 -1,1 0,0 0,0 0,0z"/>
   <path class="fil59" d="M7 15c0,0 2,0 2,-1l-1 -1c-1,0 -1,1 -1,2z"/>
   <path class="fil60" d="M16 38c0,1 0,4 0,4 0,0 1,0 1,0 0,-1 0,-1 0,-2 0,0 -1,-1 -1,-1 0,-1 0,-1 0,-1 0,0 0,0 0,0z"/>
   <path class="fil61" d="M11 16l0 1c0,0 0,0 0,0l1 0c0,0 0,0 0,0 0,0 1,0 1,0 1,0 1,-1 2,-1 0,0 -1,0 -1,0 0,0 0,0 -1,0 0,0 0,0 -1,0 0,0 0,0 -1,0 0,0 0,0 0,0z"/>
   <path class="fil62" d="M14 19l0 0 0 0c0,0 1,0 1,0 1,0 1,0 1,0l2 -1c0,0 0,0 0,0 0,0 0,0 0,0 -1,0 -2,0 -3,0 0,0 -1,0 -1,1z"/>
   <path class="fil63" d="M15 20c0,0 0,0 0,0l0 0c0,0 2,0 3,0 0,0 0,0 1,0 0,-1 1,-1 1,-1 0,0 0,0 -1,0 0,0 -1,0 -2,0 -1,0 -2,1 -2,1z"/>
   <path class="fil64" d="M14 40c0,1 0,1 0,2 0,0 0,1 0,1 0,0 1,0 1,0 0,-1 0,-3 0,-4 -1,0 -1,1 -1,1z"/>
   <path class="fil65" d="M14 19l1 1c0,0 1,-1 2,-1 1,0 2,0 2,0 0,0 0,-1 -1,-1l-2 1c0,0 0,0 -1,0 0,0 -1,0 -1,0z"/>
   <path class="fil66" d="M7 15l0 1c0,0 1,0 1,0 1,0 1,0 1,-1 0,0 1,0 1,0l-1 0c0,0 0,-1 0,-1 0,1 -2,1 -2,1z"/>
   <path class="fil67" d="M12 17l0 0c0,0 0,1 1,1 0,0 0,0 0,0 1,-1 1,-1 1,-1 1,0 2,0 2,0 0,0 0,0 0,0 0,0 0,0 -1,0 0,-1 0,-1 0,-1 -1,0 -1,1 -2,1 0,0 -1,0 -1,0z"/>
   <path class="fil68" d="M9 14c0,0 0,1 0,1 1,-1 2,-1 2,-1l-2 -1c-1,0 -1,0 -1,0l1 1z"/>
   <path class="fil69" d="M7 16l0 1c0,0 1,0 1,-1 1,0 2,0 2,0l0 0 0 -1 0 0c0,0 -1,0 -1,0 0,1 0,1 -1,1 0,0 -1,0 -1,0z"/>
   <path class="fil70" d="M11 43c0,0 0,1 0,1 0,1 0,1 0,1 0,0 1,0 1,-1 0,0 0,-1 0,-2 0,0 -1,1 -1,1z"/>
   <path class="fil71" d="M27 36c0,0 0,0 1,0 0,-1 -1,-2 0,-3 0,0 0,0 0,0 -1,0 -1,0 -1,0 0,-1 0,0 0,-1 0,0 0,0 0,1 0,0 0,0 0,0 0,1 0,1 0,1 0,1 0,1 0,2z"/>
   <path class="fil72" d="M12 42c0,1 0,2 0,2 0,0 0,0 1,0l0 0c0,-1 0,-2 0,-3 -1,0 -1,1 -1,1z"/>
   <path class="fil73" d="M29 24c0,1 -1,1 -1,1 0,1 0,1 -1,1 0,1 0,0 0,0 0,1 0,1 0,1l0 0c0,-1 0,0 1,-1l1 0c0,0 1,-1 1,-1 0,0 0,-1 -1,-1l0 0z"/>
   <path class="fil74" d="M10 15l0 1c1,0 1,0 1,0 0,0 0,0 0,0 1,0 1,0 1,0 1,0 1,0 1,0l0 -1c0,0 -1,0 -1,0 0,0 0,0 0,0 -1,0 -1,0 -1,0 0,0 -1,0 -1,0z"/>
   <path class="fil75" d="M28 36c0,-1 1,-1 1,-1 0,0 0,0 0,-1l0 0c-1,0 -1,0 -1,0 0,-1 0,-1 0,-1 -1,1 0,2 0,3z"/>
   <path class="fil76" d="M10 44c0,1 0,1 0,2 0,-1 1,-1 1,-1 0,0 0,0 0,-1 0,0 0,-1 0,-1 0,0 -1,1 -1,1z"/>
   <path class="fil77" d="M9 45l0 1c0,0 1,0 1,0 0,-1 0,-1 0,-2 -1,1 -1,1 -1,1z"/>
   <path class="fil78" d="M9 15l1 0 0 0c0,0 1,0 1,0 0,0 0,0 1,0 0,0 0,0 0,0l-1 -1c0,0 -1,0 -2,1z"/>
   <path class="fil79" d="M8 46c0,1 0,0 0,1 0,0 0,0 0,0 0,0 1,-1 1,-1l0 -1 -1 1z"/>
  </g>
 </g>
</svg>
