<?xml version="1.0" encoding="UTF-8"?>
<!DOCTYPE svg PUBLIC "-//W3C//DTD SVG 1.1//EN" "http://www.w3.org/Graphics/SVG/1.1/DTD/svg11.dtd">
<!-- Creator: CorelDRAW X7 -->
<svg xmlns="http://www.w3.org/2000/svg" xml:space="preserve" width="200px" height="65px" version="1.1" style="shape-rendering:geometricPrecision; text-rendering:geometricPrecision; image-rendering:optimizeQuality; fill-rule:evenodd; clip-rule:evenodd"
viewBox="0 0 200 65"
 xmlns:xlink="http://www.w3.org/1999/xlink">
 <defs>
  <style type="text/css">
   <![CDATA[
    .fil4 {fill:#2282B1}
    .fil15 {fill:#2F9AB8}
    .fil7 {fill:#37A9BC}
    .fil8 {fill:#3EB6C0}
    .fil13 {fill:#41BEC2}
    .fil9 {fill:#47C9C5}
    .fil37 {fill:#4BC3AE}
    .fil3 {fill:#4BD0C7}
    .fil5 {fill:#51DBCA}
    .fil10 {fill:#55E4CD}
    .fil34 {fill:#58C9AD}
    .fil6 {fill:#5AEDCF}
    .fil17 {fill:#5EF5D2}
    .fil2 {fill:#62FDD4}
    .fil36 {fill:#67D0AB}
    .fil30 {fill:#75D4AA}
    .fil25 {fill:#84DCA9}
    .fil19 {fill:#9BE6A7}
    .fil33 {fill:#A337B4}
    .fil23 {fill:#A9ECA5}
    .fil29 {fill:#AB38A7}
    .fil31 {fill:#B2399B}
    .fil20 {fill:#B5F1A4}
    .fil27 {fill:#BC3B8B}
    .fil22 {fill:#C23C83}
    .fil24 {fill:#C2F6A3}
    .fil21 {fill:#CA3C75}
    .fil26 {fill:#CFFCA2}
    .fil28 {fill:#D23E69}
    .fil32 {fill:#D5FEA1}
    .fil18 {fill:#D83E60}
    .fil16 {fill:#E04052}
    .fil35 {fill:#E74147}
    .fil14 {fill:#FEBE75}
    .fil12 {fill:#FECA74}
    .fil0 {fill:#FF9D76}
    .fil11 {fill:#FFB175}
    .fil1 {fill:white}
   ]]>
  </style>
 </defs>
 <g id="Слой_x0020_1">
  <metadata id="CorelCorpID_0Corel-Layer"/>
  <path class="fil0" d="M29 27c-1,0 -1,1 -1,1 -1,0 -1,0 -1,0 0,0 0,1 0,1 0,0 0,0 0,0 -1,0 -2,2 -3,3 0,0 0,0 0,0l0 0c0,0 0,1 1,1 0,0 0,0 1,0 0,-1 0,-1 0,-1 1,0 2,-1 3,-1 0,-1 0,0 0,-1l1 0c2,-1 1,0 2,-1l1 0c-1,-1 -1,-1 -1,-1 -1,0 -1,0 -2,-1l-1 0c0,-1 0,-1 0,-1l0 1c0,0 0,0 0,0z"/>
  <path class="fil0" d="M41 66c0,0 1,0 2,0l4 0c1,0 1,0 2,0l-8 0z"/>
  <path class="fil1" d="M109 49c-2,0 -4,-1 -5,-2 -1,-2 -1,-4 1,-5 2,-1 3,-1 5,-1 0,0 2,1 2,1 1,1 2,3 1,4 0,1 -1,2 -2,2 0,0 -1,1 -2,1zm-1 -23c1,0 1,1 2,1 0,0 0,1 1,1 1,2 1,5 0,7 -1,1 -3,1 -4,0 -1,-1 -2,-4 -2,-5 0,-1 0,-2 1,-3 1,0 1,-1 2,-1zm-6 5c0,1 0,3 1,3 1,2 3,3 5,2 0,1 0,1 0,2 0,1 1,1 1,2 -1,0 -2,0 -3,0 -1,0 -2,1 -3,1 0,0 -1,1 -2,2 -1,1 -1,3 0,4 0,1 0,1 0,1 1,0 1,0 1,0l1 1c4,2 10,1 12,-2 1,-2 1,-2 1,-4 0,0 -1,-1 -1,-2 0,-1 -1,-1 -2,-2 -2,-1 -3,-2 -1,-4l1 0c0,-1 0,0 0,-1 0,0 0,0 0,0 2,-2 2,-3 1,-6 -1,-1 -1,-1 -1,-2 2,0 1,1 3,-1 0,0 0,0 0,0 -2,0 -7,0 -9,1 -1,0 -3,1 -4,2 0,1 -1,2 -1,3z"/>
  <path class="fil1" d="M45 30c0,2 1,5 2,7 0,0 0,0 1,0 1,2 5,4 8,4 2,0 3,0 5,-1 1,0 4,-1 5,-1l0 -5c0,0 0,-1 1,-1 -2,0 -4,0 -5,0 -2,0 -2,0 -4,1l0 0 4 0 0 5c0,0 0,0 0,0 -3,1 -6,1 -9,-1 -1,-1 -2,-1 -3,-2 -1,-2 -1,-3 -2,-5 0,-3 0,-5 1,-8 1,0 1,-1 1,-1 1,-1 2,-1 3,-2 3,-1 6,-1 9,2 0,0 0,0 0,0l1 0c0,1 -1,1 -1,2 1,-1 1,-1 2,-2 0,0 1,0 2,-1 -1,-1 -3,-1 -4,-2 -4,-1 -10,-1 -14,3 -2,1 -2,3 -3,5l0 3z"/>
  <path class="fil1" d="M71 31c0,-2 0,-3 2,-4 1,-2 4,-1 6,1 1,3 2,8 0,10 -1,1 -1,1 -3,1 -2,0 -4,-2 -4,-4l-1 -1c0,0 0,-1 0,-1 0,-1 0,-1 0,-2zm-3 1c0,3 0,5 2,6 3,3 10,3 12,-1l1 -1c1,-3 1,-5 -1,-8 0,0 0,0 0,0 -4,-5 -11,-4 -14,1 0,1 0,2 0,3z"/>
  <path class="fil1" d="M88 32c0,-2 0,-4 2,-5 2,-2 4,-1 6,1 2,3 3,9 -1,11 -2,1 -4,0 -6,-2 0,-1 -1,-4 -1,-5zm-3 1c0,1 0,3 1,4 0,0 1,1 2,2 2,2 6,2 9,0l1 0c1,-2 2,-3 2,-5 1,-1 1,-3 0,-4l-1 -2c-1,-2 -3,-3 -6,-3 -1,0 -1,0 -2,0l-2 1c-2,1 -4,4 -4,7z"/>
  <path class="fil1" d="M151 39c-1,0 -2,0 -3,-1l-1 -1c0,0 -1,-1 -1,-1l0 -6c0,-1 1,-1 1,-2 1,0 2,-1 3,-1 1,-1 2,-1 3,0 2,1 3,3 3,5 0,2 1,2 0,4 -1,2 -2,3 -5,3zm-5 -12l0 -2 -1 0 0 21 1 0 0 -8c1,0 1,1 1,1l0 0c1,1 2,1 3,1 1,1 3,1 4,0 2,-1 2,-1 3,-2 0,-1 0,-1 1,-2 1,-4 0,-11 -6,-11 -2,0 -4,0 -5,1 0,1 0,1 0,1 -1,0 0,0 -1,0z"/>
  <path class="fil1" d="M170 39c-1,0 -3,0 -3,-2 -1,-1 0,-3 1,-4 2,0 5,0 7,0 0,2 0,3 0,4 -1,1 -1,0 -1,1 0,0 0,0 0,0l-3 1c0,0 0,0 -1,0zm-5 -10c0,0 1,0 2,0 0,0 -1,-1 1,-2 1,-1 4,-1 5,0 1,0 1,0 1,0 1,1 1,3 1,5 -3,0 -7,-1 -10,2 0,1 -1,2 0,3 1,4 5,4 9,2 0,0 0,0 0,0 0,0 0,0 0,0l1 -1 0 1c0,0 1,1 1,1l1 0c0,0 0,-1 0,-2l0 -8c0,-1 0,-2 0,-2 -1,-1 -1,-1 -2,-2 -2,-2 -10,-1 -10,3z"/>
  <path class="fil1" d="M116 18l2 0 0 20c0,1 0,1 -1,2l6 0 1 -1c0,0 0,0 0,0l-2 0c0,0 -1,0 -1,-1l0 -19c0,-1 1,-1 1,-2 0,0 -4,0 -4,0l-2 1c0,0 0,0 0,0 0,0 0,0 0,0l0 0z"/>
  <path class="fil1" d="M127 32c0,-1 -1,-3 0,-5 1,-1 4,-2 5,0 1,0 2,2 1,2l-3 2c0,0 0,0 0,0l-3 1zm10 6c-1,0 -1,0 -2,0 -2,1 -4,1 -6,-1l0 0c-1,-1 -1,-2 -2,-3 0,0 0,-1 0,-2 0,0 0,0 1,0 1,0 1,0 2,0l2 -1c0,0 0,0 0,0l2 -1c0,0 1,0 1,0 0,0 0,0 0,-1 1,0 1,0 2,0 0,-2 -3,-4 -5,-4 -4,0 -7,2 -8,5 0,1 0,1 0,2 0,1 0,4 1,5 0,0 0,1 1,1l0 1c0,0 1,0 1,0l2 1c1,0 3,0 4,0 1,0 1,0 1,0 1,0 1,-1 2,-1 0,0 0,0 0,0l1 -1c0,0 0,0 0,0z"/>
  <path class="fil1" d="M185 40c0,0 -1,4 -2,4 0,1 0,1 0,1 -1,0 -2,0 -3,0 0,0 0,1 0,1 4,1 5,-1 6,-3l1 -4c1,-2 2,-5 3,-6l3 -8 -2 0 -4 12c0,0 -1,1 -1,1l0 0c0,0 -1,-1 -1,-1 -1,-3 -3,-8 -4,-10 0,0 0,0 0,-1 0,0 0,0 0,-1l-2 0 3 9c0,0 1,0 1,1l1 3c0,1 1,2 1,2z"/>
  <polygon class="fil1" points="160,40 162,40 162,19 160,19 "/>
  <polygon class="fil1" points="137,38 137,38 137,38 "/>
  <path class="fil2" d="M6 41c0,2 0,5 0,7l1 0 0 1c0,-1 3,-4 4,-4l2 -2c0,0 0,-1 0,-1 1,0 2,-1 2,-1 0,-1 1,-2 2,-2 -1,0 -2,0 -2,0 -1,1 -2,1 -4,1 0,0 0,0 0,0 -1,0 -1,0 -1,1 0,0 0,0 -1,0 0,0 0,0 0,0 -1,0 -1,0 -2,0 0,0 -1,0 -1,0z"/>
  <path class="fil3" d="M6 33l0 2c1,0 2,-1 4,-1 0,0 0,0 0,0l3 -1c0,0 0,0 1,0 0,0 0,0 0,0 1,0 0,0 1,0 0,0 0,0 0,0 1,0 1,0 1,0 1,-1 1,-1 1,-1l3 0c0,-1 0,0 0,-1 1,0 2,0 3,0 -1,0 0,0 -1,0 0,0 0,-1 0,-1 0,0 0,0 0,0 0,0 0,0 0,0 -1,0 -1,-1 -1,-1 -1,0 -7,2 -8,2 0,0 0,0 -1,0 0,1 0,0 -1,1l-3 1c0,0 -1,0 -1,0 0,0 0,0 -1,0z"/>
  <path class="fil4" d="M6 48c0,-2 0,-5 0,-7l0 -1 0 -2 0 -1 0 -2 0 -2 0 -2 0 -1 0 -2 0 -3 0 -3c0,0 0,0 0,0 1,0 0,0 1,0 0,0 0,0 1,0l4 -1c0,-1 0,-1 -1,-1 0,0 0,-1 -1,-1 0,-1 0,0 0,-1 -1,0 -1,-1 -2,-1 0,-1 0,-1 0,-1 -1,0 -1,0 -1,-1l1 0c0,0 0,0 -1,0l0 0 -1 1c0,1 0,5 0,6l0 25c0,0 0,0 0,1 0,0 0,0 0,0z"/>
  <path class="fil5" d="M6 35l0 2 0 0c1,0 3,-1 3,-1 1,0 2,0 3,-1 1,0 2,0 2,0 1,0 1,0 1,-1l6 -1c0,0 1,0 2,0l0 0c0,-1 0,0 0,-1 0,0 0,0 0,0l1 0 0 0c-1,0 -1,0 -1,-1 0,0 0,0 0,0 -1,0 -2,0 -3,0 0,1 0,0 0,1l-3 0c0,0 0,0 -1,1 0,0 0,0 -1,0 0,0 0,0 0,0 -1,0 0,0 -1,0 0,0 0,0 0,0 -1,0 -1,0 -1,0l-3 1c0,0 0,0 0,0 -2,0 -3,1 -4,1z"/>
  <path class="fil6" d="M6 38l0 2c2,0 1,0 2,0 2,-1 2,-1 3,-1 1,0 1,0 2,-1 0,0 1,0 2,0 0,0 1,0 2,-1 0,0 1,0 1,0 1,0 1,0 1,0 0,-1 0,-1 1,-1 0,0 0,-1 0,-1 1,0 1,0 1,-1 0,0 -1,1 -2,1 0,0 0,0 -1,0l-9 2c-1,1 -1,1 -1,1 0,0 -2,0 -2,0z"/>
  <path class="fil7" d="M6 25l0 3c0,0 0,0 0,-1l6 -1c1,0 1,0 2,0 0,-1 0,-1 1,-1 0,0 1,0 1,0l0 0c0,-1 -1,-2 -1,-2 -1,0 -1,0 -1,-1 0,1 0,1 -1,1 0,0 -1,0 -1,0l-6 2z"/>
  <path class="fil8" d="M6 28l0 2 0 0c1,0 2,-1 2,-1l4 -1c0,0 1,0 1,0 0,0 0,0 1,0 0,0 0,0 0,0l4 -1c0,-1 0,0 0,-1 0,0 0,0 0,0 0,0 0,0 0,0 0,0 0,0 0,0 0,0 0,0 0,0l-1 -1 -1 0 0 0c0,0 -1,0 -1,0 -1,0 -1,0 -1,1 -1,0 -1,0 -2,0l-6 1c0,1 0,1 0,1z"/>
  <path class="fil9" d="M6 31l0 2c1,0 1,0 1,0 0,0 1,0 1,0l3 -1c1,-1 1,0 1,-1 1,0 1,0 1,0 1,0 7,-2 8,-2 0,0 0,0 0,0 0,0 0,0 0,0 0,0 0,0 0,0 -1,0 -1,0 -1,-1 0,0 0,0 0,0 0,0 0,0 0,0l-1 0 -2 1c0,0 -1,0 -1,0l-2 0c0,0 -1,0 -1,1l-7 1z"/>
  <path class="fil10" d="M6 37l0 1c0,0 2,0 2,0 0,0 0,0 1,-1l9 -2c1,0 1,0 1,0 1,0 2,-1 2,-1 0,0 0,0 1,0l1 -1 0 0c-1,0 -2,0 -2,0l-6 1c0,1 0,1 -1,1 0,0 -1,0 -2,0 -1,1 -2,1 -3,1 0,0 -2,1 -3,1l0 0z"/>
  <path class="fil11" d="M25 34l1 1c0,0 0,0 1,0 -1,-1 0,0 0,-1 1,0 1,0 1,-1l6 -3c0,0 0,0 0,0l1 0c0,0 0,0 0,0 0,0 0,0 0,0 0,0 0,0 -1,0 0,-1 0,-1 0,-1l-1 0 -1 0c-1,1 0,0 -2,1l-1 0c0,1 0,0 0,1 -1,0 -2,1 -3,1 0,0 -1,1 -1,1 0,0 1,0 0,1z"/>
  <path class="fil12" d="M28 36c0,0 0,1 1,1l1 0c0,0 0,0 0,0 0,0 1,-1 2,-1 0,0 0,-1 1,-1 0,0 0,0 0,0 1,0 0,0 1,0 0,0 0,-1 0,-1l3 -1c0,0 0,0 0,0l0 0c0,0 0,0 0,0 0,-1 0,-2 -1,-2l0 0c0,0 0,0 0,0l-6 3c-1,1 -1,1 -2,2l0 0z"/>
  <path class="fil13" d="M6 30l0 1 7 -1c0,-1 1,-1 1,-1l2 0c0,0 1,0 1,0l2 -1c0,0 0,-1 0,-1 0,0 0,0 0,0 -1,0 -1,0 -1,0l-4 1c0,0 0,0 0,0 -1,0 -1,0 -1,0 0,0 -1,0 -1,0l-4 1c0,0 -1,1 -2,1l0 0z"/>
  <path class="fil14" d="M27 35c0,0 0,0 0,1 1,0 0,0 1,0l0 0c1,-1 1,-1 2,-2l6 -3c0,0 0,0 0,0 0,-1 0,0 0,0 0,-1 0,-1 0,-1 -1,0 -1,0 -1,0l0 0c0,0 0,0 0,0 0,0 0,0 0,0l-1 0c0,0 0,0 0,0l-6 3c0,1 0,1 -1,1 0,1 -1,0 0,1z"/>
  <path class="fil15" d="M6 25l6 -2c0,0 1,0 1,0 1,0 1,0 1,-1 0,0 -1,-1 -1,-1 0,0 0,0 -1,0l-4 1c-1,0 -1,0 -1,0 -1,0 0,0 -1,0 0,0 0,0 0,0l0 3z"/>
  <path class="fil16" d="M23 32c0,1 0,2 1,2 0,1 0,1 0,2 0,1 0,2 0,4 0,0 0,0 0,0l1 0c0,-1 0,-1 0,-1 1,0 1,0 1,0l1 -1c1,0 1,0 1,0 0,0 -1,0 -1,0 0,0 0,0 0,0l-1 -3c0,0 0,0 0,0l-1 -2c-1,0 -1,-1 -1,-1l-1 0z"/>
  <path class="fil17" d="M6 40l0 1c0,0 1,0 1,0 1,0 1,0 2,0 0,0 0,0 0,0 1,0 1,0 1,0 0,-1 0,-1 1,-1 0,0 0,0 0,0 2,0 3,0 4,-1 0,0 1,0 2,0l0 0c0,0 0,-1 1,-1 0,0 0,-1 0,-1 0,0 -1,0 -1,0 -1,1 -2,1 -2,1 -1,0 -2,0 -2,0 -1,1 -1,1 -2,1 -1,0 -1,0 -3,1 -1,0 0,0 -2,0z"/>
  <path class="fil18" d="M23 33l-1 1c0,0 0,1 0,2 0,0 0,0 0,0l0 5c1,-1 0,-1 1,-1l0 0c0,0 0,0 0,0l1 0c0,0 0,0 0,0l0 0c1,0 0,0 0,0 0,0 0,0 0,0 0,-2 0,-3 0,-4 0,-1 0,-1 0,-2 -1,0 -1,-1 -1,-2 0,0 0,0 0,0 0,1 0,0 0,1z"/>
  <path class="fil19" d="M15 23c0,0 1,1 1,2l1 0c0,0 0,0 1,-1 1,0 4,-1 5,-1 0,0 0,0 -1,0 0,0 0,0 0,0l-1 -1c-1,0 -1,0 -2,0l-4 1z"/>
  <path class="fil20" d="M18 26c0,0 0,0 0,0 0,0 0,0 0,0 0,1 0,0 0,1 0,0 0,0 1,0 0,0 0,0 0,0 0,0 0,1 0,1l1 0 -1 0 3 -1c0,0 1,0 1,0 0,0 0,0 0,0l4 -1 0 0c0,0 0,0 0,0l0 0c0,0 -1,-1 -1,-1 0,0 0,0 -1,0 0,0 0,-1 -1,0 -1,0 0,0 -1,0 0,0 -5,1 -5,1z"/>
  <path class="fil21" d="M19 37c0,1 0,3 0,4 0,0 0,1 0,1 1,0 1,0 1,0 0,0 0,0 0,0l2 -1c0,0 0,0 0,0 0,0 0,0 -1,0 0,-1 0,-1 0,-2l0 -2c0,-1 0,-1 0,-1 -1,0 -1,0 -1,-1 0,0 0,1 0,1 -1,0 -1,0 -1,1z"/>
  <path class="fil22" d="M18 37c0,0 0,1 0,1 -1,0 -1,1 -1,1 0,1 0,4 0,4l0 0c1,0 0,0 1,0l2 -1c0,0 0,0 0,0 0,0 0,0 0,0 0,0 0,0 0,0 0,0 0,0 -1,0 0,0 0,-1 0,-1 0,-1 0,-3 0,-4 0,0 0,0 -1,0z"/>
  <path class="fil23" d="M17 25l1 1c0,0 0,0 0,0 0,0 0,0 0,0 0,0 5,-1 5,-1 1,0 0,0 1,0 1,-1 1,0 1,0 1,0 1,0 1,0 0,0 1,1 1,1 0,-1 0,-1 0,-1 -1,0 -2,-1 -3,-1 0,0 0,0 0,0l-1 -1c-1,0 -4,1 -5,1 -1,1 -1,1 -1,1z"/>
  <path class="fil24" d="M20 28c0,0 0,0 0,0 0,0 0,0 0,0 0,1 0,1 1,1 0,0 0,0 1,0 0,-1 1,-1 1,-1 1,0 2,0 2,-1 1,0 1,0 2,0 1,0 0,0 2,0 0,0 0,0 0,0l0 -1c-1,0 -1,0 -1,0l-1 0 0 0 -4 1c0,0 0,0 0,0 0,0 -1,0 -1,0l-3 1 1 0z"/>
  <path class="fil25" d="M13 21c0,0 1,1 1,1 0,1 0,1 1,1l4 -1c1,0 1,0 2,0 0,0 0,0 -1,0 0,0 0,0 0,0 0,0 0,0 0,0l-2 -1c0,0 0,0 0,0 0,-1 0,-1 0,-1 0,0 0,0 0,0l-1 0c0,0 0,0 -1,0 0,0 -1,0 -1,1 0,0 0,0 0,0 -1,0 -1,0 -1,0 -1,0 -1,0 -1,0z"/>
  <path class="fil26" d="M21 29c0,0 0,0 0,0 0,0 0,0 0,0 0,0 0,0 0,0 0,0 0,1 1,1l0 0c0,0 0,-1 1,-1 1,0 0,0 1,0 1,0 2,0 3,0 0,0 0,0 0,0 0,0 0,-1 0,-1 0,0 0,0 1,0 0,0 0,-1 1,-1 -2,0 -1,0 -2,0 -1,0 -1,0 -2,0 0,1 -1,1 -2,1 0,0 -1,0 -1,1 -1,0 -1,0 -1,0z"/>
  <path class="fil27" d="M15 41c0,0 0,1 0,2 0,0 0,1 0,1 0,0 0,1 1,0 0,0 1,0 1,0 0,0 0,0 0,-1l0 0c0,0 0,-3 0,-4l0 0c-1,0 -2,1 -2,2z"/>
  <path class="fil28" d="M21 34c0,1 0,1 -1,1 0,1 0,1 1,1 0,0 0,0 0,1l0 2c0,1 0,1 0,2 1,0 1,0 1,0 0,0 0,0 1,0 0,-1 0,0 0,-1 -1,0 0,0 -1,1l0 -5c0,0 0,0 0,0 0,-1 0,-2 0,-2 -1,0 -1,0 -1,0z"/>
  <path class="fil29" d="M11 45c0,0 0,1 0,2 0,0 0,0 0,0l0 0c1,0 1,0 1,0l2 -2c0,1 0,0 0,1 0,-1 0,-2 -1,-2 0,-1 0,-1 0,-2 0,0 0,1 0,1l-2 2z"/>
  <path class="fil30" d="M11 20c1,0 1,0 1,1 1,0 1,0 1,0 0,0 0,0 1,0 0,0 0,0 1,0 0,0 0,0 0,0 0,-1 1,-1 1,-1 1,0 1,0 1,0 0,0 0,0 0,0l-2 -1c-1,0 -1,0 -1,0 -1,0 -1,0 -1,0 -1,0 -1,0 -2,1z"/>
  <path class="fil31" d="M13 42c0,1 0,1 0,2 1,0 1,1 1,2 0,-1 0,0 0,-1l2 -1c-1,1 -1,0 -1,0 0,0 0,-1 0,-1 0,-1 0,-2 0,-2 0,0 -1,1 -2,1z"/>
  <path class="fil32" d="M22 30c0,0 0,0 0,0 0,0 0,0 0,0 0,0 0,1 0,1 1,0 0,0 1,0 0,0 0,0 0,0 0,1 0,1 1,1 0,0 0,0 0,0 1,-1 2,-3 3,-3 -1,0 -2,0 -3,0 -1,0 0,0 -1,0 -1,0 -1,1 -1,1l0 0z"/>
  <path class="fil33" d="M7 48l0 1c0,0 0,0 1,0 0,0 1,-1 1,-1 1,0 1,0 2,-1l0 0c0,0 0,0 0,0 0,-1 0,-2 0,-2 -1,0 -4,3 -4,4l0 -1z"/>
  <path class="fil34" d="M8 17c1,0 1,1 2,1 0,1 0,0 0,1 1,-1 1,-1 1,-1 1,0 1,0 1,0 1,0 1,0 1,0 0,0 0,0 -1,-1l-2 -1c0,0 0,0 -1,0 0,1 0,1 -1,1z"/>
  <path class="fil35" d="M28 38c0,0 0,0 1,-1l0 0c1,0 1,0 1,0 0,0 0,0 0,0l-1 0c-1,0 -1,-1 -1,-1 -1,0 0,0 -1,0 0,-1 0,-1 0,-1 -1,0 -1,0 -1,0 0,0 0,0 0,0l1 3c0,0 0,0 0,0 0,0 1,0 1,0z"/>
  <path class="fil36" d="M10 19c1,0 1,1 1,1 1,-1 1,-1 2,-1 0,0 0,0 1,0 0,0 0,0 1,0 0,0 0,0 -1,0l0 -1c0,0 0,0 -1,0l0 0c0,0 0,0 -1,0 0,0 0,0 -1,0 0,0 0,0 -1,1z"/>
  <path class="fil37" d="M8 17c1,0 1,0 1,-1 1,0 1,0 1,0 0,0 0,0 -1,0 0,0 0,0 0,-1 -1,0 -1,0 -1,0l0 0 -1 0c0,1 0,1 1,1 0,0 0,0 0,1z"/>
 </g>
</svg>
