<?xml version="1.0" encoding="UTF-8"?>
<!DOCTYPE svg PUBLIC "-//W3C//DTD SVG 1.1//EN" "http://www.w3.org/Graphics/SVG/1.1/DTD/svg11.dtd">
<!-- Creator: CorelDRAW X7 -->
<svg xmlns="http://www.w3.org/2000/svg" xml:space="preserve" width="200px" height="65px" version="1.1" style="shape-rendering:geometricPrecision; text-rendering:geometricPrecision; image-rendering:optimizeQuality; fill-rule:evenodd; clip-rule:evenodd"
viewBox="0 0 200 65"
 xmlns:xlink="http://www.w3.org/1999/xlink">
 <defs>
  <style type="text/css">
   <![CDATA[
    .fil1 {fill:#88DEB1}
    .fil4 {fill:#A6EBA9}
    .fil3 {fill:#F8F8F8}
    .fil2 {fill:white}
    .fil0 {fill:white}
   ]]>
  </style>
   <clipPath id="id0">
    <rect x="-4" y="8" width="205.419" height="72.7021"/>
   </clipPath>
 </defs>
 <g id="Слой_x0020_1">
  <metadata id="CorelCorpID_0Corel-Layer"/>
  <g id="_433031694032">
   <path class="fil0" d="M101 13c0,2 0,2 1,2 0,0 2,0 3,0 2,2 2,5 1,6l-1 1c-1,2 -6,2 -6,-4 0,-2 -1,-8 0,-9 1,-2 4,-3 6,-2 1,1 1,3 0,4 -1,2 -2,2 -4,2 0,0 0,0 0,0zm-5 -2l0 19 3 0 0 -7c1,0 1,2 4,2 6,0 8,-7 5,-10 -1,0 -1,0 -1,0 0,0 0,0 0,0 -1,-1 -1,-1 -1,-1 0,0 -1,0 -2,0 1,0 1,-1 2,-1 2,-1 2,-3 1,-6 -2,-3 -7,-3 -9,-1 -1,1 -2,3 -2,5z"/>
   <path class="fil0" d="M116 14c2,0 2,1 2,3l-4 0c0,-1 0,-3 2,-3zm-5 4c0,1 0,3 2,5 1,1 3,1 5,1 1,0 2,0 2,-1 0,0 0,-1 0,-1 0,0 0,0 -1,-1 -1,1 -4,1 -5,0 0,-1 0,-1 0,-2l7 0c0,-1 0,-2 -1,-4 0,-2 -2,-3 -4,-3 -3,0 -5,3 -5,6z"/>
   <path class="fil0" d="M134 22c-2,0 -2,-3 -1,-3 1,-1 2,-1 3,-1 0,2 0,3 -1,3 0,1 -1,1 -1,1zm-4 -9l1 1c0,1 0,1 0,1 0,0 1,-1 3,-1 1,0 2,1 2,2 -1,0 -1,0 -1,0 -1,0 -3,1 -3,1 -4,2 -2,8 2,7 0,0 1,0 1,0 0,-1 1,-1 1,-1 0,0 0,0 0,1l2 0c0,-1 0,-1 0,-2 0,-4 1,-8 -2,-9 -1,-1 -3,-1 -5,0 0,0 0,0 -1,0z"/>
   <path class="fil0" d="M123 10l0 2c-1,0 -1,0 -1,0l0 2c0,0 0,0 1,0l0 6c0,1 1,2 1,3 1,2 4,1 4,1l0 -2 0 0 -2 0c0,-1 0,-1 0,-1l0 -7c3,0 2,1 2,-1 0,-1 -1,-1 -2,-1 0,-4 0,-3 -2,-3 0,1 -1,0 -1,1z"/>
  </g>
  <g id="_433031692240">
   <polygon class="fil1" points="6,27 6,27 6,27 "/>
   <polygon class="fil1" points="6,27 6,27 "/>
  </g>
  <g id="_433031689008">
   <g>
    <path class="fil2" d="M109 60c-2,0 -4,-1 -6,-2 -1,-2 0,-4 2,-5 1,-1 3,-1 4,-1 1,0 2,1 2,1 2,1 3,3 2,5 0,0 -2,1 -2,1 -1,1 -1,1 -2,1zm-2 -22c1,0 2,0 2,0 1,0 1,1 1,1 1,2 2,5 1,7 -1,1 -3,1 -4,0 -2,-1 -3,-4 -3,-5 1,-1 1,-2 2,-3 0,0 1,0 1,0zm-5 5c0,1 0,2 0,2 2,2 4,3 6,3 0,0 0,0 0,1 0,1 0,1 1,2 -1,0 -3,0 -4,0 -1,1 -1,1 -2,1 -1,1 -2,1 -2,2 -1,1 -1,3 0,5 0,0 0,0 0,0 0,0 0,0 0,0l2 1c4,2 9,1 11,-2 1,-2 1,-2 1,-4 0,0 0,-1 0,-2 -1,0 -2,-1 -2,-2 -2,-1 -3,-2 -1,-3l1 -1c0,0 0,0 0,0 0,0 0,0 0,-1 1,-1 2,-3 1,-6 -1,-1 -2,-1 -2,-1 2,0 2,0 4,-1 0,-1 0,0 0,-1 -3,0 -8,0 -10,1 -1,0 -2,1 -3,2 -1,1 -1,2 -1,4z"/>
    <path class="fil2" d="M44 41c0,3 1,5 3,7 0,0 0,0 0,0 2,3 5,4 8,4 2,0 3,0 6,-1 1,0 3,-1 4,-1l0 -5c0,0 1,-1 1,-1 -2,0 -3,0 -5,0 -1,0 -1,0 -3,1l0 0 4 0 0 5c-1,0 0,0 -1,0 -2,1 -6,1 -8,-1 -1,0 -2,-1 -3,-2 -1,-2 -2,-3 -2,-5 -1,-2 -1,-5 1,-8 0,0 0,0 1,-1 1,-1 1,-1 2,-2 3,-1 7,0 9,2 0,0 0,0 0,0l1 1c0,0 0,0 0,1 1,0 1,-1 1,-1 1,-1 2,-1 2,-2 0,0 -3,-1 -3,-2 -5,-1 -11,-1 -14,3 -2,2 -3,3 -3,5l-1 3z"/>
    <path class="fil2" d="M70 42c0,-2 0,-3 2,-4 2,-2 5,-1 6,1 2,3 3,9 0,10 -1,1 -1,2 -2,2 -3,0 -4,-2 -5,-4l0 -2c0,0 -1,0 -1,-1 0,0 0,-1 0,-2zm-3 1c0,3 1,5 3,7 3,3 9,2 12,-2l0 -1c1,-3 1,-5 0,-8 0,0 0,0 -1,0 -3,-5 -11,-3 -13,1 -1,1 -1,2 -1,3z"/>
    <path class="fil2" d="M87 43c0,-2 0,-4 2,-5 2,-2 5,-1 6,1 2,3 3,9 0,11 -2,1 -5,0 -6,-2 -1,-1 -2,-3 -2,-5zm-3 1c0,1 1,3 1,4 1,1 2,2 2,2 3,2 7,2 9,0l1 0c2,-1 2,-2 3,-4 0,-2 0,-4 0,-5l-1 -2c-2,-2 -4,-3 -6,-3 -1,0 -2,0 -3,0l-1 1c-3,1 -5,4 -5,7z"/>
    <path class="fil2" d="M151 50c-1,0 -2,0 -3,-1l-1 -1c0,0 -1,-1 -1,-1l0 -6c0,-1 0,-1 1,-1 0,-1 1,-2 2,-2 1,-1 3,-1 4,0 2,1 3,3 3,5 0,2 0,2 0,4 -1,2 -3,3 -5,3zm-5 -11l0 -3 -2 0 0 21 2 0 0 -8c0,0 0,1 1,1l0 0c1,1 1,1 2,2 2,0 4,0 5,-1 1,0 2,-1 3,-2 0,-1 0,-1 0,-2 2,-3 1,-11 -6,-11 -1,0 -3,1 -4,2 0,0 0,0 -1,0 0,0 0,0 0,1z"/>
    <path class="fil2" d="M170 50c-1,0 -3,0 -4,-1 0,-2 1,-4 2,-4 2,-1 5,-1 7,-1 0,2 0,3 -1,4 0,1 0,0 -1,1 0,0 0,0 0,0l-2 1c0,0 0,0 -1,0zm-5 -10c0,1 0,0 1,0 1,0 0,-1 2,-2 1,-1 4,-1 5,0 0,0 0,0 1,0 1,1 1,3 1,5 -4,0 -8,-1 -10,2 -1,1 -1,2 -1,4 1,3 6,4 9,2 1,-1 1,-1 1,-1 0,0 0,0 0,0l1 -1 0 1c0,0 0,1 0,1l2 0c0,0 0,-1 0,-2l0 -8c0,-1 -1,-2 -1,-2 0,-1 0,-1 -1,-2 -3,-2 -10,-1 -10,3z"/>
    <path class="fil2" d="M115 29l3 0 0 21c0,0 -1,1 -1,1l6 0 0 0c1,-1 0,0 1,-1l-2 0c-1,0 -1,0 -1,-1l0 -19c0,-1 1,-1 1,-2 -1,0 -4,0 -5,0l-1 1c0,0 0,0 0,0 0,0 0,0 0,0l-1 0z"/>
    <path class="fil2" d="M126 43c0,-1 0,-3 1,-5 1,-1 3,-1 5,0 1,1 2,2 1,3l-3 1c0,0 -1,0 -1,0l-3 1zm10 6c0,0 -1,0 -1,1 -2,0 -4,0 -6,-2l0 0c-1,-1 -2,-2 -2,-3 0,0 -1,-1 -1,-2 1,0 1,0 2,0 0,0 1,0 1,0l2 -1c1,0 1,0 1,0l2 -1c0,0 0,0 0,0 1,0 1,0 1,0 0,-1 1,-1 1,-1 0,-2 -2,-4 -5,-4 -3,0 -6,2 -7,5 -1,1 -1,2 -1,2 0,1 1,4 1,5 1,1 1,1 1,1l1 1c0,0 0,0 0,0l3 1c1,1 3,1 4,0 0,0 1,0 1,0 0,0 1,0 1,-1 1,0 0,0 1,0l0 -1c0,0 0,0 0,0z"/>
    <path class="fil2" d="M185 52c0,0 -2,3 -2,4 0,0 -1,0 -1,0 -1,0 -1,0 -2,0 0,1 0,1 0,1 4,1 5,-1 6,-3l1 -4c1,-2 2,-4 3,-6l3 -8 -2 0 -5 12c0,0 0,1 0,1l0 0c0,0 -1,-1 -1,-1 -1,-3 -3,-8 -4,-10 0,0 0,0 0,-1 -1,0 -1,0 -1,-1l-2 0 4 9c0,0 0,1 0,1l2 4c0,0 1,1 1,2z"/>
    <polygon class="fil2" points="136,49 137,49 136,49 "/>
   </g>
   <polygon class="fil3" points="160,51 162,51 162,31 160,31 "/>
  </g>
  <polygon class="fil4" points="7,27 6,27 "/>
  <g style="clip-path:url(#id0)">
   <image x="-4" y="8" width="205.418" height="72.701" xlink:href="google play_Images\google play_ImgID1.png"/>
  </g>
 </g>
</svg>
