<?xml version="1.0" encoding="UTF-8"?>
<!DOCTYPE svg PUBLIC "-//W3C//DTD SVG 1.1//EN" "http://www.w3.org/Graphics/SVG/1.1/DTD/svg11.dtd">
<!-- Creator: CorelDRAW X7 -->
<svg xmlns="http://www.w3.org/2000/svg" xml:space="preserve" width="210mm" height="210mm" version="1.1" style="shape-rendering:geometricPrecision; text-rendering:geometricPrecision; image-rendering:optimizeQuality; fill-rule:evenodd; clip-rule:evenodd"
viewBox="0 0 21000 21000"
 xmlns:xlink="http://www.w3.org/1999/xlink">
 <defs>
  <style type="text/css">
   <![CDATA[
    .fil0 {fill:#FEFEFE}
    .fil1 {fill:#198CB4}
    .fil3 {fill:url(#id0)}
    .fil2 {fill:url(#id1)}
    .fil4 {fill:url(#id2)}
   ]]>
  </style>
  <linearGradient id="id0" gradientUnits="userSpaceOnUse" x1="9875.21" y1="-159.55" x2="21885.6" y2="13334.8">
   <stop offset="0" style="stop-opacity:1; stop-color:#313232"/>
   <stop offset="1" style="stop-opacity:1; stop-color:#32B7E8"/>
  </linearGradient>
  <linearGradient id="id1" gradientUnits="userSpaceOnUse" xlink:href="#id0" x1="6476.27" y1="2808.27" x2="18469.2" y2="16375.9">
  </linearGradient>
  <linearGradient id="id2" gradientUnits="userSpaceOnUse" xlink:href="#id0" x1="3619.35" y1="5325.52" x2="15630.2" y2="18895.5">
  </linearGradient>
 </defs>
 <g id="Слой_x0020_1">
  <metadata id="CorelCorpID_0Corel-Layer"/>
  <g id="_604981529008">
   <circle class="fil0" cx="10337" cy="10512" r="9895"/>
   <g>
    <polygon class="fil1" points="3744,18336 3506,18118 "/>
    <polygon class="fil1" points="3018,17634 2762,17353 "/>
    <path class="fil2" d="M5008 4096c1775,-240 5327,-749 7519,351 2193,1099 3157,2694 3274,3604 117,911 74,977 232,1080 105,69 251,63 364,-12 36,-23 50,-36 130,-73 44,-19 161,-32 161,-32 0,0 -1624,1238 -2715,1571 -650,177 -1138,272 -1382,203 -141,-41 -198,-150 -290,-340 -252,-520 -572,-803 -1043,-836 -470,-33 -777,-19 -777,-19 0,0 -53,828 -50,1101 3,272 -91,580 384,613 475,34 900,3 1182,-29 282,-32 377,-24 377,-24 0,0 -626,438 -2559,454 -1932,16 -1613,68 -2427,-2 -814,-70 -1932,-259 -2000,-575 -68,-317 -189,-2828 -229,-3664 -40,-836 -151,-3371 -151,-3371z"/>
    <path class="fil3" d="M16746 8530c0,0 121,-140 181,-127 59,13 235,80 251,64 24,-31 330,-398 445,-480 241,-173 451,-240 743,-220 -22,430 -314,717 -689,894 -238,112 -173,74 -206,98 -32,24 -31,0 -33,37 -2,38 -4,267 -53,298 -48,32 -136,83 -136,83 -74,-104 -52,-206 -89,-224 -62,-25 -177,-65 -177,-65 0,0 -12,-165 -29,-200 -25,-52 -152,-103 -208,-158z"/>
    <path class="fil4" d="M5666 17635l4639 -6 88 -2371c0,0 45,-235 50,-239 7,-6 214,-76 384,-86 516,-30 2154,-442 2876,-934 723,-510 1413,-1286 1804,-2143 303,-787 438,-1744 657,-2029 219,-285 219,-285 219,-285 0,0 -2149,1114 -2753,1513 -604,399 -1900,1382 -2428,1476 -528,95 -1080,165 -476,-164 605,-328 1854,-1031 1854,-1031 0,0 -1973,687 -3146,756 -1174,69 -3501,156 -3501,156 0,0 -455,-66 -451,293 5,358 184,5094 184,5094z"/>
   </g>
  </g>
 </g>
</svg>
